<?xml version="1.0" encoding="UTF-8" ?>
<!DOCTYPE svg PUBLIC "-//W3C//DTD SVG 1.1//EN" "http://www.w3.org/Graphics/SVG/1.1/DTD/svg11.dtd">
<svg width="450pt" height="333pt" viewBox="0 0 450 333" version="1.1" xmlns="http://www.w3.org/2000/svg">
<g id="#ffffffff">
</g>
<g id="#000000ff">
<path fill="#000000" opacity="1.00" d=" M 225.15 38.57 C 231.32 35.69 238.30 36.00 244.92 36.07 C 247.32 36.86 252.66 36.48 251.56 40.17 C 251.86 39.68 252.46 38.71 252.76 38.22 C 254.99 40.91 255.57 44.46 255.66 47.84 C 254.03 56.08 245.80 59.94 240.52 65.57 C 236.00 69.36 231.80 73.69 229.37 79.15 C 227.48 83.59 225.75 88.10 224.18 92.66 C 226.78 90.71 229.69 88.90 233.00 88.59 C 235.46 88.84 237.95 89.14 240.35 89.75 C 242.73 91.87 245.39 93.83 246.91 96.69 C 252.39 92.36 256.69 86.74 260.09 80.68 C 262.54 76.18 260.60 70.94 261.65 66.15 C 262.47 58.94 263.51 51.06 268.52 45.43 C 271.78 43.44 274.27 40.37 277.77 38.78 C 281.16 38.75 284.55 38.44 287.93 39.04 C 287.02 39.41 285.20 40.17 284.29 40.55 C 288.29 38.89 291.40 42.83 292.84 46.06 C 294.95 49.73 293.99 54.08 293.85 58.08 C 293.60 61.63 290.66 64.07 289.24 67.14 C 287.23 71.58 283.75 75.08 280.90 78.97 C 277.94 82.43 273.97 85.43 272.82 90.07 C 272.21 92.67 271.01 95.28 271.60 98.00 C 272.33 101.38 272.26 104.84 272.48 108.28 C 277.67 104.81 282.84 100.69 289.19 99.65 C 292.82 99.68 296.44 99.28 300.07 99.24 C 305.24 98.20 306.57 105.64 303.92 108.80 C 301.37 111.57 299.10 114.78 295.74 116.63 C 294.76 117.80 293.80 118.99 292.91 120.22 C 297.94 120.03 303.06 119.81 307.93 118.41 C 315.42 115.63 322.28 111.28 329.99 109.04 C 334.56 107.66 339.21 106.33 343.97 105.83 C 352.06 107.01 360.66 106.88 368.01 110.93 C 369.64 112.48 371.42 114.05 372.42 116.10 C 372.72 118.56 372.57 121.09 372.23 123.53 C 370.65 125.43 369.18 127.49 367.31 129.11 C 363.35 130.87 359.21 132.36 354.99 133.32 C 341.01 133.84 326.12 129.84 312.88 136.03 C 308.18 137.70 305.24 141.98 301.39 144.90 C 301.28 147.39 301.14 149.96 301.79 152.39 C 302.89 155.30 305.06 157.86 304.87 161.14 C 305.86 162.17 305.94 163.92 305.03 165.03 C 303.14 167.60 300.42 169.86 297.02 169.52 C 292.32 172.45 285.88 171.72 282.17 176.35 C 286.42 178.71 291.52 177.47 296.14 177.50 C 302.48 177.35 308.40 174.14 314.79 174.86 C 318.20 175.26 321.66 174.01 325.02 175.00 C 328.97 176.08 333.22 175.42 337.05 177.07 C 343.26 179.86 350.86 180.17 355.81 185.35 C 357.45 187.09 359.84 187.71 361.72 189.12 C 364.56 191.95 366.17 195.69 367.92 199.23 C 367.83 199.69 367.65 200.60 367.56 201.06 C 369.86 201.71 371.71 207.30 368.31 207.50 C 368.59 207.70 369.15 208.11 369.43 208.31 C 369.01 210.17 368.46 212.01 367.76 213.78 C 356.37 218.77 343.56 216.31 332.17 212.72 C 325.83 210.09 319.02 206.81 315.20 200.90 C 314.02 199.87 312.85 198.84 311.71 197.80 C 305.06 197.12 298.64 194.89 291.94 194.51 C 283.54 193.79 275.01 191.70 266.61 193.39 C 264.26 197.43 267.57 203.32 263.17 206.20 C 260.72 208.79 257.02 208.38 253.84 209.10 C 252.48 208.84 251.12 208.57 249.77 208.30 C 246.73 206.78 243.80 205.04 240.86 203.33 C 238.69 205.17 235.14 207.90 236.97 211.09 C 240.15 216.87 241.99 223.40 246.09 228.64 C 246.93 231.73 248.72 234.41 249.76 237.40 C 250.70 241.49 251.51 245.67 251.60 249.87 C 250.67 255.67 249.03 261.42 246.60 266.77 C 241.57 273.40 234.86 279.04 226.81 281.54 C 223.15 281.52 219.46 282.40 215.84 281.60 C 211.15 281.29 206.35 282.46 201.72 281.27 C 197.48 278.55 195.66 272.91 196.89 268.08 C 196.46 262.37 202.21 259.44 203.70 254.41 C 208.94 251.57 212.21 246.39 215.83 241.84 C 217.77 237.38 219.78 232.72 220.29 227.85 C 219.01 224.76 217.50 221.78 216.15 218.72 C 214.16 213.84 208.15 210.91 203.10 212.60 C 200.12 213.44 197.12 214.59 194.66 216.54 C 193.17 218.67 192.18 221.10 190.88 223.34 C 191.00 225.93 188.69 227.50 186.82 228.83 C 183.86 230.84 180.19 229.10 177.56 227.38 C 175.12 223.78 172.46 220.25 170.64 216.27 C 169.67 214.26 170.15 211.37 167.86 210.21 C 165.01 208.00 161.26 208.72 157.94 208.83 C 153.63 212.35 150.93 217.89 151.35 223.45 C 153.30 228.66 155.31 234.50 152.49 239.83 C 148.65 242.49 145.08 246.21 140.07 246.29 C 135.19 246.23 130.13 246.65 125.39 245.33 C 122.61 243.55 119.33 242.95 116.41 241.51 C 112.11 238.10 109.68 232.52 110.34 227.03 C 115.34 221.92 122.77 220.97 128.99 217.98 C 134.79 212.95 137.00 205.36 140.60 198.85 C 138.78 194.21 133.33 197.63 130.20 194.87 C 127.80 194.49 123.25 195.38 123.20 191.76 C 122.63 191.60 121.49 191.29 120.92 191.13 C 118.60 187.30 119.33 182.73 120.75 178.73 C 116.63 174.28 111.54 170.95 106.48 167.68 C 102.90 166.11 98.80 166.80 95.11 165.56 C 87.51 163.22 79.55 162.46 71.86 160.56 C 65.79 157.57 58.56 155.40 54.85 149.28 C 53.16 147.63 50.58 146.65 49.88 144.18 C 49.13 141.18 47.51 138.02 48.79 134.93 C 50.33 130.63 53.98 127.14 58.16 125.43 C 63.33 124.48 68.83 123.52 73.91 125.47 C 78.87 128.11 83.71 131.31 87.13 135.88 C 89.31 138.82 92.49 140.81 95.95 141.88 C 102.92 143.92 110.20 146.15 117.52 144.73 C 113.62 141.42 109.10 137.54 108.71 132.09 C 111.38 128.16 116.63 127.54 121.00 127.85 C 123.08 128.12 125.16 127.98 127.20 127.46 C 127.95 124.70 127.96 121.80 127.43 118.99 C 124.44 117.96 121.64 116.47 118.74 115.21 C 114.24 113.11 109.16 113.18 104.47 111.72 C 98.89 110.19 92.32 110.43 87.95 106.10 C 81.87 104.07 78.23 97.90 76.49 92.05 C 74.71 88.26 74.16 84.09 73.18 80.06 C 72.91 74.59 74.46 69.19 76.53 64.17 C 78.26 57.22 85.51 53.54 91.97 52.06 C 98.96 51.11 107.11 51.29 112.58 56.39 C 115.39 61.03 119.52 65.27 120.01 70.93 C 120.83 75.61 121.19 80.40 122.74 84.93 C 124.68 92.17 130.41 97.35 135.20 102.77 C 134.53 106.03 138.15 104.95 140.07 105.25 C 142.13 105.94 143.83 107.41 145.69 108.50 C 145.54 105.46 143.70 102.16 145.22 99.26 C 149.40 96.29 154.92 98.43 159.43 99.43 C 159.60 99.89 159.94 100.80 160.10 101.25 C 160.01 99.89 160.98 98.18 159.88 97.03 C 155.86 91.43 149.22 88.87 143.52 85.43 C 141.41 83.57 139.76 81.25 137.83 79.22 C 135.52 76.74 135.55 73.21 134.83 70.11 C 134.63 66.44 134.71 62.76 135.24 59.12 C 136.83 56.26 137.86 52.73 141.15 51.36 C 148.94 45.92 159.50 50.35 164.85 57.16 C 167.93 62.85 170.59 68.80 172.19 75.09 C 173.82 81.25 177.88 86.37 182.41 90.68 C 186.45 87.60 190.04 81.97 195.88 83.52 C 199.53 83.28 202.70 85.15 204.99 87.86 C 208.13 85.22 208.32 80.69 207.69 76.93 C 206.85 70.66 207.38 64.34 207.98 58.09 C 211.10 49.87 216.57 41.73 225.15 38.57 Z" />
</g>
</svg>
