<?xml version="1.0" encoding="UTF-8" ?>
<!DOCTYPE svg PUBLIC "-//W3C//DTD SVG 1.1//EN" "http://www.w3.org/Graphics/SVG/1.1/DTD/svg11.dtd">
<svg width="450pt" height="333pt" viewBox="0 0 450 333" version="1.1" xmlns="http://www.w3.org/2000/svg">
<g id="#ffffffff">
</g>
<g id="#000000ff">
<path fill="#000000" opacity="1.00" d=" M 168.27 41.23 C 172.58 39.41 178.45 38.11 182.26 41.63 C 186.07 44.60 187.66 49.33 190.49 53.04 C 190.86 59.65 187.87 65.70 185.66 71.73 C 184.78 73.98 182.45 75.13 181.23 77.14 C 179.76 79.54 178.82 82.22 177.95 84.88 C 177.27 87.27 176.05 89.61 176.35 92.16 C 176.74 95.08 177.77 97.86 178.54 100.69 C 180.18 102.26 181.93 103.70 183.81 104.98 C 185.57 103.84 187.09 102.20 189.11 101.54 C 191.33 101.38 193.55 101.66 195.77 101.63 C 202.43 95.90 208.62 86.99 205.35 77.85 C 203.37 73.69 200.26 69.79 200.41 64.93 C 200.39 58.65 202.43 51.68 207.51 47.64 C 211.83 45.25 215.89 41.82 221.07 41.70 C 229.85 40.06 238.50 43.51 245.88 47.99 C 247.92 48.76 248.44 51.05 249.34 52.79 C 250.22 60.03 249.91 68.09 244.82 73.82 C 239.97 78.30 233.82 81.82 230.84 87.96 C 228.94 92.94 227.42 98.06 225.56 103.05 C 225.06 104.27 226.19 105.41 226.40 106.58 C 228.90 105.68 231.47 104.50 234.20 104.79 C 237.35 105.59 240.20 107.27 243.13 108.65 C 244.29 109.14 245.03 110.01 245.36 111.25 C 246.29 106.87 252.34 106.42 253.61 102.13 C 256.17 94.72 258.71 86.99 263.96 80.99 C 266.99 77.17 271.55 75.16 275.59 72.64 C 282.05 69.78 288.79 65.95 296.10 66.98 C 301.66 67.40 306.27 73.21 305.06 78.73 C 304.53 81.39 304.14 84.48 301.76 86.18 C 296.90 88.57 291.18 89.35 287.00 92.99 C 282.35 97.01 277.55 101.13 274.73 106.70 C 274.99 111.65 270.56 117.89 275.75 121.78 C 279.78 119.46 284.24 118.12 288.83 117.52 C 293.55 117.28 298.79 116.44 302.65 119.86 C 302.66 121.15 302.65 122.44 302.62 123.73 C 302.96 123.68 303.62 123.56 303.95 123.51 C 302.68 125.51 301.46 127.55 300.21 129.57 C 310.65 129.53 319.95 124.23 329.73 121.30 C 334.59 118.73 339.78 116.89 344.89 114.91 C 350.17 114.05 355.64 112.31 360.96 113.94 C 364.63 114.96 368.68 116.14 371.09 119.32 C 373.54 123.29 373.28 128.13 374.20 132.55 C 375.44 138.05 371.68 142.78 369.49 147.47 C 367.12 152.70 360.76 153.23 356.07 155.28 C 350.47 156.39 344.75 158.06 339.00 157.22 C 334.76 156.26 330.38 156.23 326.06 156.26 C 321.96 156.34 317.97 154.79 313.87 155.30 C 309.75 155.38 306.53 158.29 303.06 160.14 C 300.65 161.23 302.05 164.30 302.44 166.22 C 305.92 174.85 314.51 181.90 324.16 181.56 C 329.43 183.04 334.37 185.81 339.01 188.72 C 342.57 191.71 346.99 193.57 350.11 197.10 C 353.24 203.47 353.53 210.70 352.33 217.60 C 350.30 223.25 347.47 228.81 342.65 232.58 C 338.96 235.18 334.53 237.07 329.93 236.73 C 325.14 237.08 321.06 234.17 316.87 232.32 C 313.47 229.26 309.36 227.20 305.60 224.65 C 300.89 222.61 295.79 221.69 291.00 219.88 C 286.07 217.97 280.71 218.34 275.63 217.12 C 273.74 220.75 272.86 224.79 271.41 228.60 C 265.84 232.16 259.32 235.78 252.47 234.31 C 248.53 233.66 244.81 231.53 242.91 227.92 C 241.98 225.82 238.74 226.91 238.80 229.05 C 237.97 233.61 238.80 238.61 241.28 242.57 C 243.32 246.24 246.25 249.52 247.18 253.72 C 248.18 258.28 250.63 262.36 251.41 266.98 C 253.17 273.69 253.63 281.59 249.41 287.51 C 244.26 292.28 236.89 293.58 230.09 293.43 C 222.43 293.47 215.77 287.93 212.61 281.25 C 209.36 273.36 211.58 264.70 211.82 256.49 C 212.24 255.77 212.67 255.06 213.10 254.34 C 213.27 251.52 214.08 248.80 214.34 246.00 C 212.77 242.70 210.35 239.84 207.85 237.21 C 205.14 236.05 202.09 236.57 199.23 236.58 C 197.71 238.84 196.59 241.64 193.94 242.82 C 189.81 244.81 186.99 249.51 182.11 249.74 C 176.87 250.31 171.95 247.10 169.03 242.95 C 167.30 239.69 166.68 236.00 165.48 232.56 C 164.50 231.91 163.36 231.59 162.26 231.23 C 160.34 232.32 158.24 233.05 156.13 233.67 C 154.00 238.86 156.20 244.62 154.72 249.92 C 152.38 255.47 147.58 259.35 142.59 262.44 C 131.04 267.06 115.80 260.39 112.77 247.99 C 111.30 243.16 114.73 238.92 118.19 236.02 C 121.89 231.91 127.87 230.77 131.28 226.33 C 132.85 224.27 134.40 222.15 135.59 219.84 C 135.83 218.00 135.69 216.14 135.67 214.30 C 131.98 213.40 128.58 215.13 125.14 216.14 C 121.73 215.96 117.17 215.53 116.30 211.49 C 113.70 206.61 117.19 201.42 115.76 196.45 C 116.26 196.17 117.27 195.59 117.77 195.31 C 117.22 195.44 116.14 195.70 115.60 195.83 C 114.10 192.12 111.88 188.73 109.27 185.72 C 105.90 182.50 101.35 180.83 96.95 179.57 C 92.20 178.04 87.04 179.06 82.34 177.30 C 78.78 175.90 74.82 175.60 71.52 173.57 C 67.69 171.36 63.90 169.08 59.95 167.09 C 56.72 165.50 55.25 161.97 54.11 158.77 C 52.03 153.02 52.82 146.78 53.44 140.84 C 53.83 137.23 55.21 133.86 56.60 130.54 L 57.13 130.58 C 57.30 130.16 57.64 129.34 57.81 128.92 C 64.42 125.29 72.88 123.49 79.95 126.75 C 83.48 130.99 85.59 136.10 88.37 140.82 C 90.04 143.68 91.16 147.01 93.78 149.18 C 96.01 151.12 98.59 152.60 101.02 154.26 C 104.78 155.34 108.96 154.94 112.36 157.08 C 108.60 153.62 104.11 150.45 102.48 145.36 C 99.29 140.02 105.83 136.00 109.90 133.85 C 114.38 134.50 118.41 136.42 121.89 139.30 C 122.57 139.18 123.94 138.94 124.62 138.82 C 125.64 135.70 124.61 132.07 121.80 130.26 C 118.63 128.62 115.20 127.56 111.93 126.14 C 107.78 124.62 104.44 121.64 100.74 119.32 C 97.85 117.57 96.04 114.68 93.92 112.16 C 90.96 108.83 88.81 104.85 87.25 100.70 C 85.77 96.67 86.57 92.33 86.06 88.16 C 85.30 82.29 87.40 76.61 89.44 71.22 C 90.27 69.27 91.45 67.47 92.96 65.97 C 97.66 61.14 104.69 59.75 111.13 58.97 C 116.46 58.80 122.20 59.19 126.79 62.15 C 130.07 66.28 130.76 71.82 130.27 76.94 C 130.68 82.13 128.46 86.90 127.39 91.86 C 126.93 96.55 127.22 101.29 127.16 106.00 C 127.27 109.30 127.09 112.97 129.23 115.74 C 131.81 119.06 135.64 121.07 138.97 123.55 C 140.93 119.03 146.31 115.74 151.07 118.16 C 152.91 119.30 154.41 117.62 155.56 116.38 C 155.31 111.20 153.43 106.33 151.81 101.46 C 150.84 95.02 150.34 88.50 149.76 82.01 C 150.53 73.27 151.56 64.10 156.23 56.45 C 159.34 50.78 163.23 45.31 168.27 41.23 Z" />
</g>
</svg>
