<?xml version="1.0" encoding="UTF-8" ?>
<!DOCTYPE svg PUBLIC "-//W3C//DTD SVG 1.1//EN" "http://www.w3.org/Graphics/SVG/1.1/DTD/svg11.dtd">
<svg width="450pt" height="333pt" viewBox="0 0 450 333" version="1.1" xmlns="http://www.w3.org/2000/svg">
<g id="#ffffffff">
</g>
<g id="#000000ff">
<path fill="#000000" opacity="1.00" d=" M 167.56 41.68 C 170.90 39.57 175.21 39.24 179.05 39.67 C 184.88 42.01 187.04 48.30 190.47 52.93 C 190.95 59.61 187.80 65.69 185.64 71.80 C 184.74 74.01 182.43 75.15 181.21 77.13 C 179.73 79.54 178.89 82.25 177.92 84.88 C 177.31 87.27 176.05 89.58 176.35 92.12 C 176.71 95.05 177.78 97.83 178.55 100.67 C 180.30 102.07 181.75 104.34 184.06 104.70 C 185.80 103.76 187.20 102.18 189.09 101.53 C 191.35 101.40 193.62 101.69 195.89 101.58 C 199.56 97.85 203.53 94.14 205.13 88.97 C 207.34 83.96 206.08 78.25 203.25 73.78 C 198.45 66.81 200.20 57.24 204.64 50.55 C 206.63 47.40 210.30 46.27 213.23 44.25 C 216.66 41.83 221.02 41.66 225.06 41.35 C 233.07 40.97 240.51 44.74 247.19 48.77 C 248.23 49.91 248.66 51.44 249.31 52.81 C 250.26 60.04 249.89 68.10 244.82 73.83 C 239.95 78.28 233.86 81.84 230.83 87.93 C 229.06 92.57 227.73 97.36 225.90 101.97 C 224.76 103.51 226.06 105.16 226.44 106.70 C 229.41 105.28 233.01 103.95 236.23 105.39 C 239.07 106.62 241.80 108.08 244.63 109.35 C 244.80 109.86 245.13 110.87 245.29 111.38 C 246.07 106.86 252.36 106.53 253.61 102.15 C 256.58 93.43 259.73 84.11 267.00 77.97 C 273.53 73.45 280.68 69.68 288.36 67.54 C 293.32 66.10 299.81 66.34 303.07 70.94 C 306.51 74.88 305.31 80.83 303.00 84.98 C 298.59 88.77 291.93 88.70 287.49 92.60 C 282.64 96.74 277.61 100.98 274.69 106.77 C 274.99 111.65 270.50 118.02 275.83 121.77 C 282.44 117.79 290.35 116.94 297.91 117.38 C 299.64 117.80 301.05 118.99 302.59 119.83 C 302.68 121.11 302.66 122.39 302.53 123.67 C 302.92 123.65 303.68 123.60 304.06 123.58 C 302.48 125.38 301.56 127.64 300.20 129.59 C 310.83 129.50 320.29 124.08 330.26 121.12 C 334.55 118.51 339.45 117.30 343.96 115.17 C 349.51 114.14 355.31 112.29 360.92 113.93 C 364.56 114.95 368.57 116.09 371.00 119.20 C 373.63 123.18 373.23 128.12 374.20 132.59 C 374.95 135.88 373.91 139.22 372.24 142.05 C 370.26 145.67 369.05 150.37 364.83 152.04 C 356.99 155.29 348.57 157.68 340.02 157.39 C 335.75 156.45 331.37 156.17 327.01 156.26 C 321.36 156.49 315.55 153.87 310.05 156.12 C 307.34 157.72 304.38 159.03 301.94 161.02 C 301.23 165.05 303.27 169.06 305.88 172.03 C 310.02 178.21 317.44 181.86 324.85 181.62 C 329.77 183.54 334.62 185.79 339.03 188.73 C 342.53 191.79 347.07 193.51 350.12 197.13 C 350.59 198.82 351.35 200.40 351.98 202.04 C 353.62 207.11 352.91 212.48 352.35 217.66 C 349.92 224.14 346.46 230.83 340.08 234.19 C 335.76 236.78 330.45 237.32 325.58 236.29 C 321.40 234.41 316.82 233.01 313.57 229.61 C 310.82 228.13 308.25 226.35 305.64 224.65 C 300.91 222.61 295.79 221.71 290.99 219.87 C 286.08 218.00 280.77 218.23 275.71 217.10 C 273.66 220.66 272.93 224.77 271.43 228.57 C 266.79 231.62 261.66 234.39 255.99 234.69 C 250.97 234.55 245.33 232.77 242.96 227.95 C 242.05 225.87 238.78 226.84 238.80 229.00 C 237.91 233.82 238.90 239.06 241.64 243.17 C 244.18 247.25 247.10 251.23 247.83 256.11 C 251.49 265.69 255.57 277.32 249.84 286.92 C 246.77 290.30 242.27 292.26 237.77 292.79 C 231.40 294.16 223.84 293.84 218.85 289.15 C 215.59 286.49 212.86 283.00 211.77 278.89 C 209.84 271.55 211.61 263.95 211.79 256.52 C 212.24 255.78 212.69 255.04 213.14 254.31 C 213.18 251.48 214.18 248.79 214.32 245.99 C 212.78 242.68 210.33 239.84 207.85 237.21 C 205.12 236.04 202.05 236.56 199.17 236.60 C 197.68 238.91 196.55 241.75 193.84 242.88 C 189.72 244.83 186.96 249.59 182.07 249.74 C 176.84 250.27 171.90 247.08 169.02 242.91 C 167.42 239.86 166.71 236.47 165.75 233.20 C 165.27 231.73 163.40 231.69 162.17 231.26 C 160.33 232.38 158.28 233.08 156.20 233.60 C 153.88 238.76 156.29 244.61 154.68 249.91 C 152.42 255.53 147.51 259.37 142.52 262.49 C 130.70 267.16 114.91 259.96 112.60 247.01 C 111.51 241.29 116.66 237.50 120.29 234.06 C 124.78 231.08 130.24 229.01 132.98 224.02 C 135.43 221.35 136.27 217.91 135.67 214.37 C 130.55 212.63 126.10 217.69 121.05 215.60 C 117.12 215.42 115.82 211.12 115.42 207.89 C 114.55 204.03 117.41 200.25 115.65 196.49 C 116.15 196.24 117.14 195.73 117.64 195.47 C 117.10 195.56 116.01 195.74 115.46 195.83 C 114.17 191.82 111.53 188.27 108.72 185.18 C 103.15 180.82 95.97 178.62 88.94 178.49 C 84.02 178.47 79.60 176.05 74.86 175.13 C 70.09 173.21 65.96 169.99 61.30 167.82 C 55.79 165.63 53.95 159.33 52.95 154.04 C 52.45 146.06 53.12 137.79 56.61 130.49 L 57.35 130.62 C 57.43 130.19 57.59 129.33 57.67 128.90 C 64.43 125.42 72.92 123.38 80.05 126.80 C 84.78 133.07 87.78 140.44 91.88 147.14 C 94.23 150.29 97.89 151.99 100.99 154.27 C 103.80 154.79 106.58 155.55 109.45 155.58 C 110.42 156.09 111.39 156.61 112.36 157.12 C 107.46 152.82 101.46 147.94 101.64 140.82 C 103.73 137.78 106.61 135.34 109.98 133.82 C 114.42 134.54 118.43 136.40 121.88 139.30 C 122.56 139.18 123.93 138.94 124.61 138.82 C 125.72 135.67 124.54 132.06 121.77 130.21 C 116.38 127.50 110.20 126.28 105.39 122.46 C 101.89 120.02 97.94 117.93 95.60 114.21 C 90.71 108.60 86.08 101.76 86.29 94.00 C 86.37 88.42 85.24 82.64 87.33 77.28 C 88.74 73.40 89.56 68.74 93.05 66.13 C 96.12 62.18 101.27 60.94 105.88 59.75 C 112.79 58.34 120.53 58.46 126.76 62.09 C 131.19 67.53 130.49 74.87 130.07 81.41 C 129.59 84.99 128.04 88.31 127.39 91.86 C 126.84 96.23 127.45 100.65 126.93 105.02 C 127.45 108.60 126.86 112.65 129.20 115.71 C 131.78 119.07 135.67 121.06 139.00 123.57 C 140.86 119.00 146.40 115.70 151.11 118.20 C 153.14 119.35 155.71 117.32 155.39 115.11 C 155.20 110.14 152.96 105.59 151.66 100.87 C 150.90 94.59 150.30 88.28 149.75 81.98 C 150.38 74.82 151.24 67.53 153.96 60.82 C 157.29 53.70 161.76 47.03 167.56 41.68 Z" />
</g>
</svg>
