<?xml version="1.0" encoding="UTF-8" ?>
<!DOCTYPE svg PUBLIC "-//W3C//DTD SVG 1.1//EN" "http://www.w3.org/Graphics/SVG/1.1/DTD/svg11.dtd">
<svg width="394pt" height="144pt" viewBox="0 0 394 144" version="1.1" xmlns="http://www.w3.org/2000/svg">
<g id="#ffffffff">
<path fill="#ffffff" opacity="1.00" d=" M 157.95 7.80 C 159.12 3.77 163.79 4.33 167.05 4.57 C 170.72 5.05 174.29 3.47 177.93 3.94 C 178.01 5.43 176.32 5.73 175.30 6.23 C 169.68 8.62 163.48 4.78 157.95 7.80 Z" />
<path fill="#ffffff" opacity="1.00" d=" M 186.60 15.84 C 187.90 14.06 189.66 12.44 191.96 12.25 C 199.31 11.14 205.71 16.58 213.03 15.75 C 219.32 15.40 225.74 16.47 231.92 14.90 C 238.88 13.07 246.44 13.00 253.33 15.20 C 248.26 18.01 242.44 14.96 237.05 15.49 C 233.69 16.44 230.55 18.24 226.99 18.37 C 222.34 18.64 217.69 18.18 213.04 18.23 C 206.27 18.48 200.58 13.93 194.01 13.13 C 191.18 12.68 188.79 14.32 186.60 15.84 Z" />
<path fill="#ffffff" opacity="1.00" d=" M 119.72 17.94 C 124.60 13.39 132.06 11.73 138.19 14.63 C 143.92 17.43 150.14 14.73 156.03 14.21 C 155.68 17.34 151.87 17.46 149.51 18.30 C 145.63 18.73 141.24 19.38 137.77 17.17 C 133.67 14.54 128.02 14.36 123.86 16.91 C 122.60 17.65 121.14 17.80 119.72 17.94 Z" />
<path fill="#ffffff" opacity="1.00" d=" M 42.91 17.91 C 47.04 13.62 53.77 13.56 59.20 14.84 C 64.54 17.06 70.40 16.73 76.05 17.35 C 83.81 17.02 91.50 14.96 99.30 15.69 C 98.20 17.59 95.92 17.55 94.03 17.88 C 85.69 18.75 77.29 20.17 68.93 18.66 C 63.03 19.08 57.97 15.05 52.08 15.55 C 48.88 15.68 46.05 17.42 42.91 17.91 Z" />
<path fill="#ffffff" opacity="1.00" d=" M 298.97 18.59 C 304.30 14.56 311.08 17.10 316.95 18.11 C 322.97 18.00 329.00 17.39 335.00 16.79 C 336.77 16.50 338.51 17.04 340.22 17.48 C 338.61 18.40 336.90 19.20 335.03 19.33 C 327.44 19.97 319.50 21.57 312.14 18.74 C 307.93 17.07 303.21 17.02 298.97 18.59 Z" />
<path fill="#ffffff" opacity="1.00" d=" M 268.95 22.04 C 270.17 20.91 271.02 18.78 273.03 19.14 C 276.08 19.67 278.82 21.56 282.01 21.43 C 285.67 21.38 289.33 21.30 292.99 21.58 C 297.12 21.91 301.15 20.14 305.28 20.99 C 303.49 23.09 300.58 23.25 298.09 23.91 C 293.41 25.07 288.67 23.45 283.94 23.63 C 280.35 23.82 277.09 22.23 273.94 20.73 C 272.16 19.48 270.51 21.38 268.95 22.04 Z" />
<path fill="#ffffff" opacity="1.00" d=" M 361.59 20.63 C 362.80 19.99 364.10 19.55 365.44 19.21 C 369.09 22.38 374.15 22.48 378.39 24.47 C 380.80 25.84 384.29 24.28 386.20 26.46 C 383.40 26.65 380.43 27.33 377.73 26.25 C 373.37 24.37 368.39 23.64 364.89 20.16 C 363.79 20.33 362.69 20.49 361.59 20.63 Z" />
<path fill="#ffffff" opacity="1.00" d=" M 13.89 34.91 C 15.23 28.15 22.01 24.44 28.19 22.98 C 24.01 25.73 19.10 28.02 16.49 32.50 C 14.43 35.90 16.00 39.88 16.96 43.35 C 14.82 41.11 13.01 38.15 13.89 34.91 Z" />
<path fill="#ffffff" opacity="1.00" d=" M 384.68 47.95 C 384.88 46.19 384.47 44.14 385.84 42.75 C 386.61 46.94 386.74 52.02 383.25 55.08 C 383.73 52.71 384.56 50.38 384.68 47.95 Z" />
<path fill="#ffffff" opacity="1.00" d=" M 14.60 56.96 C 17.88 62.33 17.06 69.29 15.01 74.97 C 14.73 82.26 19.08 88.76 23.22 94.43 C 18.97 92.48 16.94 87.90 15.06 83.90 C 13.74 80.41 12.56 76.47 13.84 72.78 C 15.83 67.71 14.16 62.23 14.60 56.96 Z" />
<path fill="#ffffff" opacity="1.00" d=" M 366.33 108.25 C 370.08 104.34 372.74 99.42 377.07 96.04 C 376.36 99.79 373.45 102.43 371.31 105.40 C 369.32 107.92 367.30 111.04 363.87 111.60 C 362.03 111.63 359.70 111.64 358.67 109.78 C 361.23 109.56 364.29 110.30 366.33 108.25 Z" />
<path fill="#ffffff" opacity="1.00" d=" M 28.58 97.33 C 30.46 97.28 32.43 97.01 34.24 97.68 C 36.95 98.91 38.95 101.45 41.94 102.11 C 45.59 103.06 49.39 102.51 53.10 102.42 C 50.20 105.58 45.54 104.95 41.75 104.19 C 39.03 103.70 37.02 101.77 34.97 100.08 C 33.20 98.40 30.40 98.91 28.58 97.33 Z" />
<path fill="#ffffff" opacity="1.00" d=" M 62.12 102.69 C 64.91 99.79 69.24 99.74 72.99 99.75 C 77.08 100.37 80.83 102.74 85.08 102.46 C 92.14 102.23 99.20 103.17 106.25 102.43 C 112.47 101.78 118.79 102.82 124.94 101.43 C 118.63 104.31 111.63 103.30 104.97 104.38 C 98.31 104.98 91.63 104.09 84.96 104.21 C 79.99 104.40 75.87 100.59 70.90 101.05 C 67.89 101.10 65.01 102.00 62.12 102.69 Z" />
<path fill="#ffffff" opacity="1.00" d=" M 288.88 103.60 C 292.02 102.60 295.03 101.05 298.42 101.20 C 296.96 103.77 293.96 104.53 291.43 105.59 C 286.55 107.87 281.60 104.40 276.84 103.38 C 274.98 104.65 273.10 105.91 271.09 106.94 C 271.57 104.39 274.11 103.14 276.16 101.98 C 280.42 101.70 284.58 104.00 288.88 103.60 Z" />
<path fill="#ffffff" opacity="1.00" d=" M 240.10 104.29 C 243.33 103.07 246.72 102.25 250.20 102.48 C 244.83 106.64 237.77 109.04 230.97 108.00 C 227.33 107.65 223.66 107.87 220.02 107.49 C 216.84 107.10 214.18 105.00 211.04 104.47 C 208.45 104.23 206.28 105.98 203.95 106.81 C 206.41 103.96 210.34 101.85 214.13 103.24 C 217.93 104.56 221.95 104.86 225.95 104.72 C 230.66 104.47 235.54 106.05 240.10 104.29 Z" />
<path fill="#ffffff" opacity="1.00" d=" M 149.85 107.32 C 152.68 105.48 155.49 103.15 158.94 102.71 C 164.36 101.70 168.74 105.84 173.91 106.58 C 178.07 108.04 182.12 106.00 186.15 105.16 C 184.35 110.57 177.29 110.76 172.70 109.28 C 167.83 108.48 164.07 104.20 158.98 104.54 C 155.65 104.51 153.26 108.29 149.85 107.32 Z" />
<path fill="#ffffff" opacity="1.00" d=" M 115.92 108.62 C 118.63 105.91 122.72 104.29 126.47 105.72 C 132.11 107.77 138.11 106.04 143.85 105.47 C 139.64 109.46 133.55 110.01 128.12 108.85 C 126.37 108.26 124.90 106.77 122.97 106.81 C 120.61 107.38 118.37 108.44 115.92 108.62 Z" />
<path fill="#ffffff" opacity="1.00" d=" M 340.06 109.87 C 343.89 108.17 348.10 107.77 352.03 106.36 C 347.99 108.79 343.59 110.58 339.24 112.38 C 335.67 113.69 332.32 111.32 328.99 110.41 C 324.76 109.06 320.30 109.36 315.94 109.54 C 320.71 106.28 326.22 108.38 331.46 108.39 L 331.51 109.56 C 332.34 109.45 333.98 109.24 334.80 109.14 L 334.43 110.73 C 336.31 110.54 338.29 110.64 340.06 109.87 Z" />
</g>
<g id="#16daffff">
<path fill="#16daff" opacity="1.00" d=" M 190.65 0.00 L 207.52 0.00 C 215.10 0.97 222.94 0.39 230.31 2.72 C 239.89 5.56 250.07 7.38 260.00 5.30 C 267.35 4.77 274.61 3.13 282.00 3.54 C 290.71 3.15 299.29 5.39 308.00 4.80 C 318.31 4.17 328.68 4.82 338.85 6.60 C 344.57 7.54 350.15 9.45 356.00 9.50 C 360.87 9.62 365.33 11.76 369.87 13.28 C 378.53 15.90 384.92 22.86 390.31 29.78 C 393.19 32.97 393.57 37.39 394.00 41.47 L 394.00 52.51 C 393.46 58.00 393.99 63.57 392.97 69.03 C 391.52 77.88 391.64 87.10 388.39 95.57 C 386.96 99.45 384.53 102.84 381.79 105.89 C 378.12 109.86 376.53 115.15 373.66 119.65 C 368.64 127.93 362.67 136.26 353.95 140.95 C 348.81 143.81 342.03 144.42 337.05 140.89 C 330.95 136.72 329.33 128.88 324.19 123.84 C 321.45 121.01 317.94 118.74 313.91 118.46 C 309.44 118.14 305.47 115.64 300.99 115.50 C 290.67 114.83 280.37 116.11 270.07 116.20 C 262.36 115.90 254.66 115.46 246.98 114.72 C 234.33 113.61 221.63 114.39 208.95 114.36 C 197.96 114.35 187.06 112.29 176.07 112.72 C 171.01 112.98 166.05 111.64 161.00 111.80 C 152.03 112.20 143.09 113.01 134.13 113.51 C 111.02 114.80 88.02 110.37 64.91 111.49 C 51.41 113.31 37.08 115.30 24.04 110.10 C 20.89 108.70 17.52 108.03 14.14 107.46 C 11.16 107.09 10.66 103.70 9.39 101.54 C 6.36 96.03 3.50 90.32 2.34 84.08 C 0.02 73.48 1.88 62.63 1.35 51.93 C 3.66 42.53 4.65 32.40 10.25 24.20 C 14.28 18.66 20.88 16.21 26.38 12.50 C 29.09 10.85 31.69 8.75 34.94 8.33 C 45.19 6.84 55.58 5.88 65.94 6.73 C 78.63 7.92 91.34 6.11 104.04 6.60 C 110.73 5.89 117.40 4.93 124.07 4.00 C 133.78 1.08 144.01 1.04 154.04 0.30 C 166.24 0.09 178.46 0.70 190.65 0.00 M 157.95 7.80 C 163.48 4.78 169.68 8.62 175.30 6.23 C 176.32 5.73 178.01 5.43 177.93 3.94 C 174.29 3.47 170.72 5.05 167.05 4.57 C 163.79 4.33 159.12 3.77 157.95 7.80 M 186.60 15.84 C 188.79 14.32 191.18 12.68 194.01 13.13 C 200.58 13.93 206.27 18.48 213.04 18.23 C 217.69 18.18 222.34 18.64 226.99 18.37 C 230.55 18.24 233.69 16.44 237.05 15.49 C 242.44 14.96 248.26 18.01 253.33 15.20 C 246.44 13.00 238.88 13.07 231.92 14.90 C 225.74 16.47 219.32 15.40 213.03 15.75 C 205.71 16.58 199.31 11.14 191.96 12.25 C 189.66 12.44 187.90 14.06 186.60 15.84 M 119.72 17.94 C 121.14 17.80 122.60 17.65 123.86 16.91 C 128.02 14.36 133.67 14.54 137.77 17.17 C 141.24 19.38 145.63 18.73 149.51 18.30 C 151.87 17.46 155.68 17.34 156.03 14.21 C 150.14 14.73 143.92 17.43 138.19 14.63 C 132.06 11.73 124.60 13.39 119.72 17.94 M 42.91 17.91 C 46.05 17.42 48.88 15.68 52.08 15.55 C 57.97 15.05 63.03 19.08 68.93 18.66 C 77.29 20.17 85.69 18.75 94.03 17.88 C 95.92 17.55 98.20 17.59 99.30 15.69 C 91.50 14.96 83.81 17.02 76.05 17.35 C 70.40 16.73 64.54 17.06 59.20 14.84 C 53.77 13.56 47.04 13.62 42.91 17.91 M 298.97 18.59 C 303.21 17.02 307.93 17.07 312.14 18.74 C 319.50 21.57 327.44 19.97 335.03 19.33 C 336.90 19.20 338.61 18.40 340.22 17.48 C 338.51 17.04 336.77 16.50 335.00 16.79 C 329.00 17.39 322.97 18.00 316.95 18.11 C 311.08 17.10 304.30 14.56 298.97 18.59 M 268.95 22.04 C 270.51 21.38 272.16 19.48 273.94 20.73 C 277.09 22.23 280.35 23.82 283.94 23.63 C 288.67 23.45 293.41 25.07 298.09 23.91 C 300.58 23.25 303.49 23.09 305.28 20.99 C 301.15 20.14 297.12 21.91 292.99 21.58 C 289.33 21.30 285.67 21.38 282.01 21.43 C 278.82 21.56 276.08 19.67 273.03 19.14 C 271.02 18.78 270.17 20.91 268.95 22.04 M 361.59 20.63 C 362.69 20.49 363.79 20.33 364.89 20.16 C 368.39 23.64 373.37 24.37 377.73 26.25 C 380.43 27.33 383.40 26.65 386.20 26.46 C 384.29 24.28 380.80 25.84 378.39 24.47 C 374.15 22.48 369.09 22.38 365.44 19.21 C 364.10 19.55 362.80 19.99 361.59 20.63 M 13.89 34.91 C 13.01 38.15 14.82 41.11 16.96 43.35 C 16.00 39.88 14.43 35.90 16.49 32.50 C 19.10 28.02 24.01 25.73 28.19 22.98 C 22.01 24.44 15.23 28.15 13.89 34.91 M 384.68 47.95 C 384.56 50.38 383.73 52.71 383.25 55.08 C 386.74 52.02 386.61 46.94 385.84 42.75 C 384.47 44.14 384.88 46.19 384.68 47.95 M 14.60 56.96 C 14.16 62.23 15.83 67.71 13.84 72.78 C 12.56 76.47 13.74 80.41 15.06 83.90 C 16.94 87.90 18.97 92.48 23.22 94.43 C 19.08 88.76 14.73 82.26 15.01 74.97 C 17.06 69.29 17.88 62.33 14.60 56.96 M 366.33 108.25 C 364.29 110.30 361.23 109.56 358.67 109.78 C 359.70 111.64 362.03 111.63 363.87 111.60 C 367.30 111.04 369.32 107.92 371.31 105.40 C 373.45 102.43 376.36 99.79 377.07 96.04 C 372.74 99.42 370.08 104.34 366.33 108.25 M 28.58 97.33 C 30.40 98.91 33.20 98.40 34.97 100.08 C 37.02 101.77 39.03 103.70 41.75 104.19 C 45.54 104.95 50.20 105.58 53.10 102.42 C 49.39 102.51 45.59 103.06 41.94 102.11 C 38.95 101.45 36.95 98.91 34.24 97.68 C 32.43 97.01 30.46 97.28 28.58 97.33 M 62.12 102.69 C 65.01 102.00 67.89 101.10 70.90 101.05 C 75.87 100.59 79.99 104.40 84.96 104.21 C 91.63 104.09 98.31 104.98 104.97 104.38 C 111.63 103.30 118.63 104.31 124.94 101.43 C 118.79 102.82 112.47 101.78 106.25 102.43 C 99.20 103.17 92.14 102.23 85.08 102.46 C 80.83 102.74 77.08 100.37 72.99 99.75 C 69.24 99.74 64.91 99.79 62.12 102.69 M 288.88 103.60 C 284.58 104.00 280.42 101.70 276.16 101.98 C 274.11 103.14 271.57 104.39 271.09 106.94 C 273.10 105.91 274.98 104.65 276.84 103.38 C 281.60 104.40 286.55 107.87 291.43 105.59 C 293.96 104.53 296.96 103.77 298.42 101.20 C 295.03 101.05 292.02 102.60 288.88 103.60 M 240.10 104.29 C 235.54 106.05 230.66 104.47 225.95 104.72 C 221.95 104.86 217.93 104.56 214.13 103.24 C 210.34 101.85 206.41 103.96 203.95 106.81 C 206.28 105.98 208.45 104.23 211.04 104.47 C 214.18 105.00 216.84 107.10 220.02 107.49 C 223.66 107.87 227.33 107.65 230.97 108.00 C 237.77 109.04 244.83 106.64 250.20 102.48 C 246.72 102.25 243.33 103.07 240.10 104.29 M 149.85 107.32 C 153.26 108.29 155.65 104.51 158.98 104.54 C 164.07 104.20 167.83 108.48 172.70 109.28 C 177.29 110.76 184.35 110.57 186.15 105.16 C 182.12 106.00 178.07 108.04 173.91 106.58 C 168.74 105.84 164.36 101.70 158.94 102.71 C 155.49 103.15 152.68 105.48 149.85 107.32 M 115.92 108.62 C 118.37 108.44 120.61 107.38 122.97 106.81 C 124.90 106.77 126.37 108.26 128.12 108.85 C 133.55 110.01 139.64 109.46 143.85 105.47 C 138.11 106.04 132.11 107.77 126.47 105.72 C 122.72 104.29 118.63 105.91 115.92 108.62 M 340.06 109.87 C 338.29 110.64 336.31 110.54 334.43 110.73 L 334.80 109.14 C 333.98 109.24 332.34 109.45 331.51 109.56 L 331.46 108.39 C 326.22 108.38 320.71 106.28 315.94 109.54 C 320.30 109.36 324.76 109.06 328.99 110.41 C 332.32 111.32 335.67 113.69 339.24 112.38 C 343.59 110.58 347.99 108.79 352.03 106.36 C 348.10 107.77 343.89 108.17 340.06 109.87 Z" />
</g>
</svg>
