<?xml version="1.0" encoding="UTF-8" ?>
<!DOCTYPE svg PUBLIC "-//W3C//DTD SVG 1.1//EN" "http://www.w3.org/Graphics/SVG/1.1/DTD/svg11.dtd">
<svg width="394pt" height="256pt" viewBox="0 0 394 256" version="1.1" xmlns="http://www.w3.org/2000/svg">
<g id="#ffffffff">
<path fill="#ffffff" opacity="1.00" d=" M 159.97 6.59 C 164.32 6.20 168.75 7.14 173.03 5.95 C 175.67 4.98 178.16 6.50 180.53 7.51 C 180.61 8.12 180.77 9.35 180.85 9.97 C 175.24 9.08 169.54 9.30 163.92 8.56 C 161.53 8.12 159.23 9.05 157.03 9.83 C 157.39 8.29 158.56 7.21 159.97 6.59 Z" />
<path fill="#ffffff" opacity="1.00" d=" M 183.95 16.39 C 187.44 16.11 190.41 13.62 194.01 13.85 C 200.07 14.87 205.69 18.29 211.98 17.75 C 218.28 17.37 224.72 18.52 230.90 16.86 C 237.77 15.00 245.10 15.21 251.97 16.95 C 253.47 17.41 255.73 16.81 256.25 18.78 C 248.37 20.17 240.39 18.98 232.48 19.71 C 224.75 21.48 216.83 20.40 208.99 20.79 C 202.89 21.27 197.16 18.44 191.07 18.84 C 186.97 18.62 182.84 19.73 178.79 18.84 C 179.29 16.26 181.97 16.70 183.95 16.39 Z" />
<path fill="#ffffff" opacity="1.00" d=" M 119.25 19.09 C 122.79 16.91 126.62 14.74 130.95 15.31 C 134.25 14.83 137.02 16.84 140.06 17.64 C 146.85 18.73 153.27 15.09 160.08 16.43 C 159.03 18.43 156.66 19.01 154.69 19.73 C 148.72 21.83 141.99 22.27 135.98 20.06 C 130.40 18.95 124.72 20.05 119.17 20.81 C 119.19 20.38 119.23 19.52 119.25 19.09 Z" />
<path fill="#ffffff" opacity="1.00" d=" M 41.98 19.58 C 43.58 16.20 47.79 16.63 50.92 16.13 C 56.85 15.32 62.06 19.07 67.95 18.75 C 76.69 20.31 85.36 17.88 94.09 17.47 C 95.19 17.74 98.45 16.75 97.76 18.77 C 93.29 20.35 88.45 20.23 83.80 20.84 C 76.28 22.05 68.66 20.85 61.19 19.82 C 54.90 17.75 48.40 19.99 41.98 19.58 Z" />
<path fill="#ffffff" opacity="1.00" d=" M 298.10 20.67 C 303.24 16.37 310.17 19.22 315.98 20.12 C 322.32 19.99 328.67 19.29 334.99 18.73 C 336.32 18.62 337.59 18.84 338.82 19.37 C 338.28 20.77 336.18 20.78 334.89 21.20 C 327.02 21.93 318.76 23.63 311.11 20.74 C 306.95 19.16 302.22 18.85 298.10 20.67 Z" />
<path fill="#ffffff" opacity="1.00" d=" M 268.02 24.05 C 269.18 22.89 269.97 20.78 271.97 21.13 C 275.07 21.64 277.84 23.58 281.07 23.44 C 284.70 23.37 288.33 23.28 291.96 23.59 C 296.20 23.97 300.33 21.99 304.57 23.05 C 301.51 26.06 296.86 24.33 293.06 24.98 C 286.27 25.93 279.10 25.81 272.84 22.70 C 271.10 21.51 269.52 23.40 268.02 24.05 Z" />
<path fill="#ffffff" opacity="1.00" d=" M 364.00 22.27 C 369.45 24.04 375.59 24.67 380.05 28.59 C 378.94 28.65 377.79 28.79 376.77 28.26 C 372.48 26.32 367.47 25.75 364.00 22.27 Z" />
<path fill="#ffffff" opacity="1.00" d=" M 17.81 28.91 C 21.38 26.57 25.30 24.80 29.25 23.19 C 27.38 26.35 23.43 27.26 21.18 30.07 C 18.48 33.49 15.74 37.38 15.90 41.95 C 15.40 46.43 15.57 52.01 11.64 55.02 C 13.64 50.98 10.18 47.07 11.39 42.96 C 12.69 38.03 13.27 32.06 17.81 28.91 Z" />
<path fill="#ffffff" opacity="1.00" d=" M 14.25 68.26 C 15.02 68.78 15.79 69.29 16.56 69.81 C 17.24 73.38 15.58 76.62 14.79 79.99 C 15.35 86.97 19.29 92.88 23.08 98.51 C 18.23 95.68 15.76 90.14 14.09 85.01 C 12.02 79.50 15.12 73.90 14.25 68.26 Z" />
<path fill="#ffffff" opacity="1.00" d=" M 366.76 111.85 C 370.22 107.95 372.91 103.35 377.02 100.05 C 375.98 104.91 371.82 108.20 369.12 112.16 C 366.81 115.63 361.50 116.99 358.33 113.89 C 361.17 113.61 364.67 114.32 366.76 111.85 Z" />
<path fill="#ffffff" opacity="1.00" d=" M 28.72 101.24 C 30.34 101.24 31.99 101.12 33.59 101.47 C 36.42 102.27 38.22 104.96 41.03 105.80 C 44.91 107.16 49.06 106.52 53.07 106.48 C 49.90 109.73 44.88 108.98 40.91 107.91 C 37.32 107.25 35.59 103.30 32.00 102.71 C 30.86 102.36 29.42 102.41 28.72 101.24 Z" />
<path fill="#ffffff" opacity="1.00" d=" M 62.10 106.67 C 66.56 102.73 73.44 103.20 78.64 105.35 C 82.88 107.09 87.51 106.23 91.95 106.49 C 96.73 106.72 101.52 106.90 106.29 106.42 C 112.48 105.75 118.77 106.85 124.89 105.40 C 121.73 106.57 118.46 107.68 115.05 107.60 C 109.36 107.52 103.76 108.93 98.06 108.57 C 93.36 108.30 88.65 108.33 83.96 108.12 C 80.08 107.92 76.74 105.61 72.96 105.02 C 69.25 104.71 65.67 105.86 62.10 106.67 Z" />
<path fill="#ffffff" opacity="1.00" d=" M 288.06 107.75 C 291.48 107.06 294.56 105.05 298.17 105.14 C 297.17 107.96 293.86 108.42 291.46 109.56 C 287.19 111.60 282.52 109.01 278.05 109.86 C 275.71 110.42 273.35 111.02 270.93 110.62 C 271.77 107.98 274.61 106.99 276.75 105.64 C 280.48 106.53 284.25 107.30 288.06 107.75 Z" />
<path fill="#ffffff" opacity="1.00" d=" M 149.81 111.27 C 152.98 109.34 156.10 106.62 160.02 106.63 C 165.02 106.16 169.05 109.96 173.90 110.57 C 178.02 112.02 182.06 110.10 186.03 109.11 C 185.39 112.79 181.18 113.94 177.98 114.12 C 173.14 113.89 168.53 112.12 164.37 109.74 C 162.77 108.72 160.87 108.45 159.00 108.56 C 155.64 108.38 153.22 112.47 149.81 111.27 Z" />
<path fill="#ffffff" opacity="1.00" d=" M 203.99 110.81 C 206.70 107.02 211.68 106.45 215.87 107.71 C 220.45 109.25 225.32 108.47 230.04 108.83 C 232.92 108.89 235.89 109.62 238.71 108.70 C 242.36 107.73 245.99 105.85 249.88 106.49 C 254.92 107.26 260.02 107.70 265.12 107.22 C 260.55 111.46 254.33 108.99 248.93 108.53 C 243.93 109.54 239.33 112.80 234.03 112.22 C 229.37 111.74 224.67 111.83 220.01 111.49 C 216.18 111.14 212.98 107.76 209.01 108.60 C 207.31 109.27 205.68 110.10 203.99 110.81 Z" />
<path fill="#ffffff" opacity="1.00" d=" M 111.07 113.13 C 116.40 113.19 120.39 107.80 125.82 109.52 C 131.62 111.87 137.90 110.08 143.85 109.46 C 138.18 115.02 129.82 113.39 122.87 111.85 C 119.31 113.05 116.03 115.27 112.08 114.94 C 111.83 114.49 111.32 113.59 111.07 113.13 Z" />
<path fill="#ffffff" opacity="1.00" d=" M 316.36 110.79 C 324.08 108.54 331.25 114.19 338.95 113.75 C 343.36 112.89 347.65 111.52 352.00 110.43 C 350.74 111.15 349.39 111.74 348.04 112.27 C 348.49 112.72 349.39 113.62 349.84 114.08 C 345.12 116.06 340.03 116.79 334.96 117.22 C 330.60 116.45 326.51 114.39 322.04 114.10 C 319.71 113.65 315.27 114.73 316.36 110.79 Z" />
<path fill="#ffffff" opacity="1.00" d=" M 355.40 177.15 C 356.07 175.39 356.75 173.64 357.44 171.89 C 358.85 174.22 359.70 176.88 357.56 179.09 C 356.90 178.38 356.18 177.73 355.40 177.15 Z" />
<path fill="#ffffff" opacity="1.00" d=" M 342.20 203.62 C 342.08 201.67 342.07 199.71 342.42 197.79 C 343.75 200.24 344.43 202.94 344.50 205.72 C 343.73 205.01 342.97 204.31 342.20 203.62 Z" />
<path fill="#ffffff" opacity="1.00" d=" M 369.28 222.05 C 370.96 224.20 373.90 227.47 370.88 229.89 C 369.60 227.46 369.12 224.77 369.28 222.05 Z" />
<path fill="#ffffff" opacity="1.00" d=" M 348.28 245.79 C 349.06 247.93 349.57 250.15 350.03 252.39 C 347.74 250.92 348.40 248.07 348.28 245.79 Z" />
</g>
<g id="#16daffff">
<path fill="#16daff" opacity="1.00" d=" M 141.21 3.13 C 154.75 1.49 168.38 2.74 181.97 2.22 C 187.98 1.79 193.36 4.87 199.12 5.97 C 205.60 7.55 212.33 7.92 218.97 7.47 C 221.71 7.20 224.19 5.83 226.92 5.52 C 235.46 5.05 244.37 5.10 252.32 8.69 C 259.53 11.22 265.86 5.19 272.96 5.04 C 283.47 4.43 294.13 4.18 304.53 6.12 C 308.63 6.87 312.81 6.61 316.96 6.59 C 324.34 6.50 331.62 8.08 339.01 7.77 C 343.60 7.60 347.65 10.03 352.02 10.99 C 356.67 12.01 361.19 13.96 366.04 13.67 C 369.30 13.78 372.87 13.20 375.80 15.02 C 379.36 17.09 382.56 19.73 385.68 22.41 C 388.22 24.34 387.91 27.90 389.40 30.49 C 393.89 38.52 393.44 48.17 392.78 57.05 C 392.70 60.79 392.13 64.84 394.00 68.27 L 394.00 69.75 C 391.20 77.13 392.52 85.50 390.06 93.03 C 388.54 96.64 385.02 98.81 382.96 102.05 C 380.57 105.87 379.52 110.35 377.17 114.20 C 373.17 120.41 369.19 126.65 364.24 132.16 C 360.04 137.91 355.04 143.21 348.87 146.85 C 344.04 148.28 338.48 146.72 334.96 143.15 C 329.97 138.23 328.25 130.82 322.65 126.41 C 319.21 122.91 313.85 123.01 310.23 119.77 C 302.20 115.45 292.68 117.42 284.00 117.83 C 278.23 117.98 272.79 120.68 266.98 120.14 C 260.67 119.70 254.34 119.46 248.04 118.80 C 234.40 117.52 220.71 118.48 207.05 118.33 C 199.65 118.06 192.27 117.37 184.88 116.78 C 179.59 116.36 174.26 117.16 168.99 116.35 C 161.35 115.08 153.64 116.49 145.97 116.69 C 131.03 118.13 115.97 118.07 101.04 116.58 C 94.81 116.60 88.86 114.74 82.77 113.75 C 71.62 111.71 60.32 113.34 49.09 113.29 C 44.05 113.36 39.03 113.74 33.99 113.73 C 28.62 113.70 23.74 111.19 19.03 108.90 C 16.64 107.77 13.23 108.96 11.52 106.54 C 9.01 103.12 7.60 99.07 5.56 95.38 C -0.75 85.47 1.64 73.15 1.26 62.04 C 2.10 56.94 0.66 51.78 1.95 46.74 C 3.41 39.39 5.22 31.77 9.70 25.62 C 13.47 20.49 20.06 18.82 24.07 13.98 C 26.14 11.66 28.83 10.00 31.73 8.93 C 37.64 6.77 43.67 4.50 50.06 4.59 C 53.88 4.67 57.77 2.75 61.47 4.42 C 67.75 6.86 74.55 5.34 81.06 4.99 C 84.70 4.58 88.23 6.17 91.87 5.58 C 100.56 4.70 109.30 5.60 118.00 5.08 C 125.72 4.24 133.45 3.53 141.21 3.13 M 159.97 6.59 C 158.56 7.21 157.39 8.29 157.03 9.83 C 159.23 9.05 161.53 8.12 163.92 8.56 C 169.54 9.30 175.24 9.08 180.85 9.97 C 180.77 9.35 180.61 8.12 180.53 7.51 C 178.16 6.50 175.67 4.98 173.03 5.95 C 168.75 7.14 164.32 6.20 159.97 6.59 M 183.95 16.39 C 181.97 16.70 179.29 16.26 178.79 18.84 C 182.84 19.73 186.97 18.62 191.07 18.84 C 197.16 18.44 202.89 21.27 208.99 20.79 C 216.83 20.40 224.75 21.48 232.48 19.71 C 240.39 18.98 248.37 20.17 256.25 18.78 C 255.73 16.81 253.47 17.41 251.97 16.95 C 245.10 15.21 237.77 15.00 230.90 16.86 C 224.72 18.52 218.28 17.37 211.98 17.75 C 205.69 18.29 200.07 14.87 194.01 13.85 C 190.41 13.62 187.44 16.11 183.95 16.39 M 119.25 19.09 C 119.23 19.52 119.19 20.38 119.17 20.81 C 124.72 20.05 130.40 18.95 135.98 20.06 C 141.99 22.27 148.72 21.83 154.69 19.73 C 156.66 19.01 159.03 18.43 160.08 16.43 C 153.27 15.09 146.85 18.73 140.06 17.64 C 137.02 16.84 134.25 14.83 130.95 15.31 C 126.62 14.74 122.79 16.91 119.25 19.09 M 41.98 19.58 C 48.40 19.99 54.90 17.75 61.19 19.82 C 68.66 20.85 76.28 22.05 83.80 20.84 C 88.45 20.23 93.29 20.35 97.76 18.77 C 98.45 16.75 95.19 17.74 94.09 17.47 C 85.36 17.88 76.69 20.31 67.95 18.75 C 62.06 19.07 56.85 15.32 50.92 16.13 C 47.79 16.63 43.58 16.20 41.98 19.58 M 298.10 20.67 C 302.22 18.85 306.95 19.16 311.11 20.74 C 318.76 23.63 327.02 21.93 334.89 21.20 C 336.18 20.78 338.28 20.77 338.82 19.37 C 337.59 18.84 336.32 18.62 334.99 18.73 C 328.67 19.29 322.32 19.99 315.98 20.12 C 310.17 19.22 303.24 16.37 298.10 20.67 M 268.02 24.05 C 269.52 23.40 271.10 21.51 272.84 22.70 C 279.10 25.81 286.27 25.93 293.06 24.98 C 296.86 24.33 301.51 26.06 304.57 23.05 C 300.33 21.99 296.20 23.97 291.96 23.59 C 288.33 23.28 284.70 23.37 281.07 23.44 C 277.84 23.58 275.07 21.64 271.97 21.13 C 269.97 20.78 269.18 22.89 268.02 24.05 M 364.00 22.27 C 367.47 25.75 372.48 26.32 376.77 28.26 C 377.79 28.79 378.94 28.65 380.05 28.59 C 375.59 24.67 369.45 24.04 364.00 22.27 M 17.81 28.91 C 13.27 32.06 12.69 38.03 11.39 42.96 C 10.18 47.07 13.64 50.98 11.64 55.02 C 15.57 52.01 15.40 46.43 15.90 41.95 C 15.74 37.38 18.48 33.49 21.18 30.07 C 23.43 27.26 27.38 26.35 29.25 23.19 C 25.30 24.80 21.38 26.57 17.81 28.91 M 14.25 68.26 C 15.12 73.90 12.02 79.50 14.09 85.01 C 15.76 90.14 18.23 95.68 23.08 98.51 C 19.29 92.88 15.35 86.97 14.79 79.99 C 15.58 76.62 17.24 73.38 16.56 69.81 C 15.79 69.29 15.02 68.78 14.25 68.26 M 366.76 111.85 C 364.67 114.32 361.17 113.61 358.33 113.89 C 361.50 116.99 366.81 115.63 369.12 112.16 C 371.82 108.20 375.98 104.91 377.02 100.05 C 372.91 103.35 370.22 107.95 366.76 111.85 M 28.72 101.24 C 29.42 102.41 30.86 102.36 32.00 102.71 C 35.59 103.30 37.32 107.25 40.91 107.91 C 44.88 108.98 49.90 109.73 53.07 106.48 C 49.06 106.52 44.91 107.16 41.03 105.80 C 38.22 104.96 36.42 102.27 33.59 101.47 C 31.99 101.12 30.34 101.24 28.72 101.24 M 62.10 106.67 C 65.67 105.86 69.25 104.71 72.96 105.02 C 76.74 105.61 80.08 107.92 83.96 108.12 C 88.65 108.33 93.36 108.30 98.06 108.57 C 103.76 108.93 109.36 107.52 115.05 107.60 C 118.46 107.68 121.73 106.57 124.89 105.40 C 118.77 106.85 112.48 105.75 106.29 106.42 C 101.52 106.90 96.73 106.72 91.95 106.49 C 87.51 106.23 82.88 107.09 78.64 105.35 C 73.44 103.20 66.56 102.73 62.10 106.67 M 288.06 107.75 C 284.25 107.30 280.48 106.53 276.75 105.64 C 274.61 106.99 271.77 107.98 270.93 110.62 C 273.35 111.02 275.71 110.42 278.05 109.86 C 282.52 109.01 287.19 111.60 291.46 109.56 C 293.86 108.42 297.17 107.96 298.17 105.14 C 294.56 105.05 291.48 107.06 288.06 107.75 M 149.81 111.27 C 153.22 112.47 155.64 108.38 159.00 108.56 C 160.87 108.45 162.77 108.72 164.37 109.74 C 168.53 112.12 173.14 113.89 177.98 114.12 C 181.18 113.94 185.39 112.79 186.03 109.11 C 182.06 110.10 178.02 112.02 173.90 110.57 C 169.05 109.96 165.02 106.16 160.02 106.63 C 156.10 106.62 152.98 109.34 149.81 111.27 M 203.99 110.81 C 205.68 110.10 207.31 109.27 209.01 108.60 C 212.98 107.76 216.18 111.14 220.01 111.49 C 224.67 111.83 229.37 111.74 234.03 112.22 C 239.33 112.80 243.93 109.54 248.93 108.53 C 254.33 108.99 260.55 111.46 265.12 107.22 C 260.02 107.70 254.92 107.26 249.88 106.49 C 245.99 105.85 242.36 107.73 238.71 108.70 C 235.89 109.62 232.92 108.89 230.04 108.83 C 225.32 108.47 220.45 109.25 215.87 107.71 C 211.68 106.45 206.70 107.02 203.99 110.81 M 111.07 113.13 C 111.32 113.59 111.83 114.49 112.08 114.94 C 116.03 115.27 119.31 113.05 122.87 111.85 C 129.82 113.39 138.18 115.02 143.85 109.46 C 137.90 110.08 131.62 111.87 125.82 109.52 C 120.39 107.80 116.40 113.19 111.07 113.13 M 316.36 110.79 C 315.27 114.73 319.71 113.65 322.04 114.10 C 326.51 114.39 330.60 116.45 334.96 117.22 C 340.03 116.79 345.12 116.06 349.84 114.08 C 349.39 113.62 348.49 112.72 348.04 112.27 C 349.39 111.74 350.74 111.15 352.00 110.43 C 347.65 111.52 343.36 112.89 338.95 113.75 C 331.25 114.19 324.08 108.54 316.36 110.79 Z" />
<path fill="#16daff" opacity="1.00" d=" M 355.93 160.00 C 356.11 157.52 354.23 153.20 358.01 152.82 C 358.82 154.35 359.72 155.84 360.34 157.47 C 360.86 161.02 359.92 164.86 361.75 168.16 C 363.07 171.68 367.26 174.53 365.58 178.70 C 362.88 184.23 352.43 183.34 351.56 176.99 C 352.42 171.21 356.88 166.14 355.93 160.00 M 355.40 177.15 C 356.18 177.73 356.90 178.38 357.56 179.09 C 359.70 176.88 358.85 174.22 357.44 171.89 C 356.75 173.64 356.07 175.39 355.40 177.15 Z" />
<path fill="#16daff" opacity="1.00" d=" M 339.42 186.32 C 340.36 184.35 342.32 186.62 342.00 188.00 C 342.72 194.07 348.08 198.70 347.54 205.01 C 347.36 208.14 346.30 212.06 342.94 213.13 C 338.80 214.66 333.79 211.49 333.38 207.10 C 332.56 199.70 336.06 192.66 339.42 186.32 M 342.20 203.62 C 342.97 204.31 343.73 205.01 344.50 205.72 C 344.43 202.94 343.75 200.24 342.42 197.79 C 342.07 199.71 342.08 201.67 342.20 203.62 Z" />
<path fill="#16daff" opacity="1.00" d=" M 364.64 204.23 C 365.12 204.29 366.07 204.39 366.54 204.45 C 366.69 207.83 366.68 211.29 367.71 214.55 C 369.35 217.99 372.68 220.25 374.47 223.59 C 376.18 227.08 374.37 231.33 371.30 233.39 C 368.64 234.39 365.10 234.08 363.19 231.78 C 362.10 229.02 361.92 225.94 361.69 223.00 C 362.21 219.26 362.96 215.47 361.78 211.75 C 363.07 209.39 364.09 206.88 364.64 204.23 M 369.28 222.05 C 369.12 224.77 369.60 227.46 370.88 229.89 C 373.90 227.47 370.96 224.20 369.28 222.05 Z" />
<path fill="#16daff" opacity="1.00" d=" M 343.67 250.04 C 343.51 243.27 346.57 236.62 351.42 231.97 C 352.59 236.72 353.24 241.59 354.78 246.25 C 355.90 249.73 355.29 253.98 351.94 256.00 L 345.99 256.00 C 344.94 254.14 343.67 252.26 343.67 250.04 M 348.28 245.79 C 348.40 248.07 347.74 250.92 350.03 252.39 C 349.57 250.15 349.06 247.93 348.28 245.79 Z" />
</g>
</svg>
