<?xml version="1.0" encoding="UTF-8" ?>
<!DOCTYPE svg PUBLIC "-//W3C//DTD SVG 1.1//EN" "http://www.w3.org/Graphics/SVG/1.1/DTD/svg11.dtd">
<svg width="394pt" height="261pt" viewBox="0 0 394 261" version="1.1" xmlns="http://www.w3.org/2000/svg">
<g id="#ffffffff">
<path fill="#ffffff" opacity="1.00" d=" M 170.78 7.37 C 174.12 6.23 177.54 6.72 180.56 8.50 C 180.63 9.12 180.76 10.37 180.83 10.99 C 175.25 10.05 169.57 10.34 163.98 9.55 C 161.56 9.11 159.23 10.04 157.00 10.84 C 159.04 5.03 166.31 8.61 170.78 7.37 Z" />
<path fill="#ffffff" opacity="1.00" d=" M 185.95 18.06 C 192.09 11.70 200.85 17.44 207.89 18.64 C 214.77 18.61 221.71 19.13 228.57 18.37 C 235.37 16.50 242.57 15.95 249.52 17.33 C 250.76 17.48 251.72 18.27 252.12 19.44 C 247.65 21.51 242.73 20.21 238.02 20.40 C 232.62 20.17 227.39 22.09 221.99 21.79 C 213.91 21.31 205.63 22.76 197.74 20.36 C 193.91 18.80 188.84 21.60 185.95 18.06 Z" />
<path fill="#ffffff" opacity="1.00" d=" M 119.26 20.14 C 124.50 16.12 131.92 14.85 137.91 17.93 C 145.22 20.82 152.65 15.82 160.14 17.45 C 158.80 19.62 156.18 20.19 153.93 20.97 C 149.17 22.58 143.96 22.97 139.04 21.96 C 132.65 19.54 125.73 20.86 119.18 21.84 C 119.20 21.41 119.24 20.56 119.26 20.14 Z" />
<path fill="#ffffff" opacity="1.00" d=" M 41.92 20.57 C 43.62 17.25 47.78 17.59 50.94 17.14 C 57.19 16.40 62.70 20.29 68.95 19.83 C 78.83 21.65 88.63 17.51 98.52 18.80 C 96.84 20.66 94.25 20.68 91.97 21.02 C 87.97 21.47 83.95 21.78 79.95 22.25 C 75.26 22.80 70.60 21.71 65.93 21.50 C 61.87 21.46 58.06 19.51 53.98 19.91 C 49.96 20.17 45.95 20.79 41.92 20.57 Z" />
<path fill="#ffffff" opacity="1.00" d=" M 298.05 21.63 C 302.09 18.42 307.75 19.15 312.38 20.48 C 317.20 21.96 322.18 20.50 327.08 20.46 C 331.13 20.37 335.28 18.90 339.21 20.50 C 335.90 22.75 331.77 22.43 327.99 22.90 C 322.38 23.56 316.50 23.78 311.13 21.74 C 306.96 20.12 302.23 19.91 298.05 21.63 Z" />
<path fill="#ffffff" opacity="1.00" d=" M 267.97 25.14 C 269.12 23.94 269.98 21.77 272.01 22.14 C 275.37 22.76 278.44 24.86 281.99 24.44 C 287.35 23.97 292.76 25.23 298.07 24.08 C 300.10 23.79 302.70 23.01 304.22 24.91 C 297.49 27.87 290.09 26.56 282.98 26.66 C 279.34 26.78 276.02 25.24 272.85 23.67 C 271.10 22.55 269.41 24.36 267.97 25.14 Z" />
<path fill="#ffffff" opacity="1.00" d=" M 360.74 23.53 C 362.07 22.76 363.81 21.76 365.25 22.90 C 369.17 25.43 373.95 25.80 378.15 27.74 C 380.28 28.85 383.73 27.23 385.10 29.52 C 379.01 31.05 373.56 27.88 367.98 26.07 C 365.78 24.52 363.65 22.51 360.74 23.53 Z" />
<path fill="#ffffff" opacity="1.00" d=" M 14.24 34.17 C 16.57 29.13 22.37 27.35 27.26 25.81 C 24.84 28.90 21.02 30.60 18.97 34.01 C 16.34 37.64 14.91 42.19 16.03 46.64 C 15.63 46.58 14.84 46.46 14.44 46.40 C 14.52 47.94 14.54 49.48 14.49 51.02 C 13.64 50.63 11.93 49.85 11.07 49.47 C 10.94 44.20 12.31 39.03 14.24 34.17 Z" />
<path fill="#ffffff" opacity="1.00" d=" M 14.47 61.70 C 13.30 58.87 12.98 55.71 14.29 52.87 C 15.82 55.65 15.07 58.78 14.47 61.70 Z" />
<path fill="#ffffff" opacity="1.00" d=" M 383.54 75.09 C 385.57 75.13 385.28 77.51 385.72 78.90 C 386.28 82.27 387.72 85.61 387.00 89.07 C 385.91 84.39 383.99 79.91 383.54 75.09 Z" />
<path fill="#ffffff" opacity="1.00" d=" M 15.47 78.15 C 16.28 77.87 17.10 77.58 17.91 77.30 C 17.34 80.79 15.02 84.17 16.23 87.77 C 17.39 93.68 20.82 98.71 24.22 103.54 C 19.47 101.00 17.13 95.68 15.33 90.87 C 13.71 86.75 14.37 82.30 15.47 78.15 Z" />
<path fill="#ffffff" opacity="1.00" d=" M 367.76 116.82 C 371.26 112.94 373.91 108.26 378.12 105.04 C 377.35 108.77 374.46 111.42 372.32 114.39 C 370.33 116.92 368.31 120.04 364.88 120.59 C 363.02 120.64 360.71 120.62 359.64 118.79 C 362.40 118.64 365.78 119.28 367.76 116.82 Z" />
<path fill="#ffffff" opacity="1.00" d=" M 29.70 106.26 C 31.79 106.28 34.07 105.95 35.97 107.04 C 38.06 108.23 39.80 110.02 42.09 110.88 C 45.99 112.11 50.12 111.52 54.13 111.42 C 51.17 114.63 46.43 113.93 42.59 113.15 C 39.71 112.61 37.70 110.39 35.47 108.70 C 33.83 107.26 31.07 108.07 29.70 106.26 Z" />
<path fill="#ffffff" opacity="1.00" d=" M 63.14 111.67 C 67.31 107.88 73.98 108.12 78.96 110.12 C 84.04 112.30 89.64 111.09 94.98 111.56 C 101.01 112.04 107.04 111.45 113.04 110.98 C 117.37 111.36 121.72 111.29 126.00 110.43 C 122.79 111.52 119.51 112.66 116.08 112.60 C 110.35 112.53 104.71 113.94 98.97 113.57 C 94.32 113.31 89.66 113.30 85.01 113.15 C 81.69 113.04 78.81 111.26 75.68 110.41 C 71.45 109.61 67.21 110.57 63.14 111.67 Z" />
<path fill="#ffffff" opacity="1.00" d=" M 288.99 112.72 C 292.61 112.08 295.86 109.77 299.71 110.27 C 295.76 114.33 289.59 116.30 284.03 114.91 C 279.89 113.95 275.96 116.29 271.83 115.60 C 272.93 113.06 275.54 111.91 277.80 110.63 C 281.48 111.52 285.21 112.33 288.99 112.72 Z" />
<path fill="#ffffff" opacity="1.00" d=" M 150.91 116.27 C 154.89 113.33 159.76 110.34 164.90 111.98 C 170.46 114.15 176.54 117.51 182.62 115.34 C 184.11 114.90 185.61 114.49 187.14 114.18 C 186.21 117.69 182.25 119.04 178.98 119.09 C 174.10 118.95 169.49 117.05 165.29 114.70 C 162.65 113.19 159.19 113.02 156.57 114.65 C 154.77 115.44 153.01 117.17 150.91 116.27 Z" />
<path fill="#ffffff" opacity="1.00" d=" M 204.90 115.79 C 207.38 112.99 211.28 110.88 215.07 112.21 C 221.45 114.61 228.35 113.24 234.97 114.10 C 240.51 114.80 245.37 110.54 250.94 111.48 C 255.96 112.28 261.04 112.72 266.11 112.19 C 261.60 116.48 255.33 113.98 249.97 113.53 C 244.93 114.50 240.32 117.81 234.98 117.22 C 230.67 116.81 226.34 116.77 222.02 116.60 C 218.40 116.53 215.48 114.03 212.00 113.46 C 209.42 113.30 207.23 114.96 204.90 115.79 Z" />
<path fill="#ffffff" opacity="1.00" d=" M 116.83 117.27 C 119.04 115.95 121.28 114.25 123.97 114.23 C 126.76 113.91 129.18 115.81 131.96 115.62 C 136.32 116.02 140.55 114.80 144.86 114.50 C 139.50 119.33 131.03 119.62 125.03 115.88 C 122.16 115.47 119.73 118.12 116.83 117.27 Z" />
<path fill="#ffffff" opacity="1.00" d=" M 317.21 115.59 C 324.77 113.95 331.54 118.59 338.94 118.80 C 343.77 118.29 348.33 116.43 353.08 115.47 C 351.76 116.09 350.43 116.66 349.09 117.20 C 349.67 117.85 350.26 118.51 350.86 119.16 C 345.78 121.01 340.36 122.16 334.95 122.10 C 329.36 120.34 323.67 118.54 317.73 118.77 C 317.60 117.97 317.34 116.38 317.21 115.59 Z" />
<path fill="#ffffff" opacity="1.00" d=" M 366.27 174.92 C 367.86 177.16 368.64 179.77 366.70 182.08 C 365.94 181.46 365.19 180.84 364.45 180.21 C 365.03 178.44 365.70 176.70 366.27 174.92 Z" />
<path fill="#ffffff" opacity="1.00" d=" M 347.61 191.86 C 349.23 193.82 349.46 196.80 348.09 198.96 C 346.02 197.66 347.66 194.03 347.61 191.86 Z" />
<path fill="#ffffff" opacity="1.00" d=" M 337.22 219.74 C 338.78 222.11 339.42 224.88 339.49 227.70 C 338.73 227.00 337.96 226.32 337.20 225.64 C 337.14 223.67 337.12 221.70 337.22 219.74 Z" />
<path fill="#ffffff" opacity="1.00" d=" M 370.26 221.04 C 371.95 223.16 374.96 226.57 371.88 228.89 C 370.59 226.46 370.15 223.76 370.26 221.04 Z" />
<path fill="#ffffff" opacity="1.00" d=" M 351.21 247.66 C 351.94 249.85 352.61 252.07 353.09 254.33 C 350.66 252.97 351.44 249.94 351.21 247.66 Z" />
</g>
<g id="#16daffff">
<path fill="#16daff" opacity="1.00" d=" M 134.93 4.67 C 145.57 3.58 156.28 2.84 166.97 3.36 C 173.98 3.75 181.10 2.51 188.03 3.79 C 196.43 6.45 205.08 8.94 213.99 8.63 C 221.35 8.32 228.78 8.16 235.93 6.25 C 247.53 7.54 259.22 9.15 270.92 8.28 C 274.29 7.81 277.56 6.76 280.97 6.56 C 289.02 6.08 296.97 8.14 305.03 7.87 C 321.16 7.11 338.07 7.67 352.96 14.55 C 360.96 15.99 369.79 15.63 376.89 20.14 C 382.41 24.51 387.52 29.59 391.19 35.64 C 395.37 46.64 391.22 58.67 394.00 69.88 L 394.00 76.54 C 393.29 83.00 392.72 89.49 391.68 95.90 C 390.91 100.90 386.02 103.48 383.63 107.58 C 381.27 111.72 380.11 116.46 377.40 120.43 C 374.97 123.97 372.75 127.67 370.18 131.12 C 363.98 138.52 358.52 146.98 349.89 151.82 C 345.01 153.32 339.39 151.69 335.85 148.06 C 331.88 144.14 330.13 138.64 326.60 134.39 C 324.14 131.45 321.03 128.88 317.24 127.91 C 313.72 127.14 311.29 124.11 307.80 123.27 C 301.03 121.22 293.86 122.33 286.94 122.62 C 281.82 122.66 277.21 125.62 272.05 125.23 C 263.70 124.96 255.35 124.42 247.03 123.64 C 234.72 122.64 222.37 123.38 210.04 123.36 C 198.66 123.34 187.37 121.18 175.98 121.74 C 171.30 121.85 166.71 120.60 162.04 120.79 C 148.01 121.40 134.03 123.17 119.97 122.68 C 112.12 122.60 104.31 121.68 96.47 121.21 C 91.74 120.95 87.71 117.93 83.00 117.63 C 78.00 117.32 72.93 117.31 67.99 118.25 C 62.01 119.37 56.11 121.80 49.93 120.96 C 42.32 120.12 34.07 121.95 27.07 118.07 C 22.51 115.73 17.33 114.73 12.97 112.01 C 9.67 108.01 8.23 102.87 5.52 98.48 C 2.57 93.92 2.57 88.26 2.21 83.02 C 1.61 75.37 3.34 67.81 2.78 60.16 C 2.15 60.09 0.89 59.93 0.26 59.86 C 1.50 49.38 2.91 38.56 7.99 29.14 C 11.10 23.49 17.01 20.48 22.36 17.37 C 26.48 14.42 31.56 13.57 36.41 12.61 C 40.94 11.79 45.37 10.15 50.04 10.36 C 57.55 10.42 64.50 13.99 72.01 14.23 C 78.67 14.42 85.34 14.21 92.00 14.29 C 99.16 14.44 105.92 11.72 112.86 10.41 C 117.93 9.48 123.01 8.59 128.07 7.62 C 130.60 7.21 132.39 4.98 134.93 4.67 M 170.78 7.37 C 166.31 8.61 159.04 5.03 157.00 10.84 C 159.23 10.04 161.56 9.11 163.98 9.55 C 169.57 10.34 175.25 10.05 180.83 10.99 C 180.76 10.37 180.63 9.12 180.56 8.50 C 177.54 6.72 174.12 6.23 170.78 7.37 M 185.95 18.06 C 188.84 21.60 193.91 18.80 197.74 20.36 C 205.63 22.76 213.91 21.31 221.99 21.79 C 227.39 22.09 232.62 20.17 238.02 20.40 C 242.73 20.21 247.65 21.51 252.12 19.44 C 251.72 18.27 250.76 17.48 249.52 17.33 C 242.57 15.95 235.37 16.50 228.57 18.37 C 221.71 19.13 214.77 18.61 207.89 18.64 C 200.85 17.44 192.09 11.70 185.95 18.06 M 119.26 20.14 C 119.24 20.56 119.20 21.41 119.18 21.84 C 125.73 20.86 132.65 19.54 139.04 21.96 C 143.96 22.97 149.17 22.58 153.93 20.97 C 156.18 20.19 158.80 19.62 160.14 17.45 C 152.65 15.82 145.22 20.82 137.91 17.93 C 131.92 14.85 124.50 16.12 119.26 20.14 M 41.92 20.57 C 45.95 20.79 49.96 20.17 53.98 19.91 C 58.06 19.51 61.87 21.46 65.93 21.50 C 70.60 21.71 75.26 22.80 79.95 22.25 C 83.95 21.78 87.97 21.47 91.97 21.02 C 94.25 20.68 96.84 20.66 98.52 18.80 C 88.63 17.51 78.83 21.65 68.95 19.83 C 62.70 20.29 57.19 16.40 50.94 17.14 C 47.78 17.59 43.62 17.25 41.92 20.57 M 298.05 21.63 C 302.23 19.91 306.96 20.12 311.13 21.74 C 316.50 23.78 322.38 23.56 327.99 22.90 C 331.77 22.43 335.90 22.75 339.21 20.50 C 335.28 18.90 331.13 20.37 327.08 20.46 C 322.18 20.50 317.20 21.96 312.38 20.48 C 307.75 19.15 302.09 18.42 298.05 21.63 M 267.97 25.14 C 269.41 24.36 271.10 22.55 272.85 23.67 C 276.02 25.24 279.34 26.78 282.98 26.66 C 290.09 26.56 297.49 27.87 304.22 24.91 C 302.70 23.01 300.10 23.79 298.07 24.08 C 292.76 25.23 287.35 23.97 281.99 24.44 C 278.44 24.86 275.37 22.76 272.01 22.14 C 269.98 21.77 269.12 23.94 267.97 25.14 M 360.74 23.53 C 363.65 22.51 365.78 24.52 367.98 26.07 C 373.56 27.88 379.01 31.05 385.10 29.52 C 383.73 27.23 380.28 28.85 378.15 27.74 C 373.95 25.80 369.17 25.43 365.25 22.90 C 363.81 21.76 362.07 22.76 360.74 23.53 M 14.24 34.17 C 12.31 39.03 10.94 44.20 11.07 49.47 C 11.93 49.85 13.64 50.63 14.49 51.02 C 14.54 49.48 14.52 47.94 14.44 46.40 C 14.84 46.46 15.63 46.58 16.03 46.64 C 14.91 42.19 16.34 37.64 18.97 34.01 C 21.02 30.60 24.84 28.90 27.26 25.81 C 22.37 27.35 16.57 29.13 14.24 34.17 M 14.47 61.70 C 15.07 58.78 15.82 55.65 14.29 52.87 C 12.98 55.71 13.30 58.87 14.47 61.70 M 383.54 75.09 C 383.99 79.91 385.91 84.39 387.00 89.07 C 387.72 85.61 386.28 82.27 385.72 78.90 C 385.28 77.51 385.57 75.13 383.54 75.09 M 15.47 78.15 C 14.37 82.30 13.71 86.75 15.33 90.87 C 17.13 95.68 19.47 101.00 24.22 103.54 C 20.82 98.71 17.39 93.68 16.23 87.77 C 15.02 84.17 17.34 80.79 17.91 77.30 C 17.10 77.58 16.28 77.87 15.47 78.15 M 367.76 116.82 C 365.78 119.28 362.40 118.64 359.64 118.79 C 360.71 120.62 363.02 120.64 364.88 120.59 C 368.31 120.04 370.33 116.92 372.32 114.39 C 374.46 111.42 377.35 108.77 378.12 105.04 C 373.91 108.26 371.26 112.94 367.76 116.82 M 29.70 106.26 C 31.07 108.07 33.83 107.26 35.47 108.70 C 37.70 110.39 39.71 112.61 42.59 113.15 C 46.43 113.93 51.17 114.63 54.13 111.42 C 50.12 111.52 45.99 112.11 42.09 110.88 C 39.80 110.02 38.06 108.23 35.97 107.04 C 34.07 105.95 31.79 106.28 29.70 106.26 M 63.14 111.67 C 67.21 110.57 71.45 109.61 75.68 110.41 C 78.81 111.26 81.69 113.04 85.01 113.15 C 89.66 113.30 94.32 113.31 98.97 113.57 C 104.71 113.94 110.35 112.53 116.08 112.60 C 119.51 112.66 122.79 111.52 126.00 110.43 C 121.72 111.29 117.37 111.36 113.04 110.98 C 107.04 111.45 101.01 112.04 94.98 111.56 C 89.64 111.09 84.04 112.30 78.96 110.12 C 73.98 108.12 67.31 107.88 63.14 111.67 M 288.99 112.72 C 285.21 112.33 281.48 111.52 277.80 110.63 C 275.54 111.91 272.93 113.06 271.83 115.60 C 275.96 116.29 279.89 113.95 284.03 114.91 C 289.59 116.30 295.76 114.33 299.71 110.27 C 295.86 109.77 292.61 112.08 288.99 112.72 M 150.91 116.27 C 153.01 117.17 154.77 115.44 156.57 114.65 C 159.19 113.02 162.65 113.19 165.29 114.70 C 169.49 117.05 174.10 118.95 178.98 119.09 C 182.25 119.04 186.21 117.69 187.14 114.18 C 185.61 114.49 184.11 114.90 182.62 115.34 C 176.54 117.51 170.46 114.15 164.90 111.98 C 159.76 110.34 154.89 113.33 150.91 116.27 M 204.90 115.79 C 207.23 114.96 209.42 113.30 212.00 113.46 C 215.48 114.03 218.40 116.53 222.02 116.60 C 226.34 116.77 230.67 116.81 234.98 117.22 C 240.32 117.81 244.93 114.50 249.97 113.53 C 255.33 113.98 261.60 116.48 266.11 112.19 C 261.04 112.72 255.96 112.28 250.94 111.48 C 245.37 110.54 240.51 114.80 234.97 114.10 C 228.35 113.24 221.45 114.61 215.07 112.21 C 211.28 110.88 207.38 112.99 204.90 115.79 M 116.83 117.27 C 119.73 118.12 122.16 115.47 125.03 115.88 C 131.03 119.62 139.50 119.33 144.86 114.50 C 140.55 114.80 136.32 116.02 131.96 115.62 C 129.18 115.81 126.76 113.91 123.97 114.23 C 121.28 114.25 119.04 115.95 116.83 117.27 M 317.21 115.59 C 317.34 116.38 317.60 117.97 317.73 118.77 C 323.67 118.54 329.36 120.34 334.95 122.10 C 340.36 122.16 345.78 121.01 350.86 119.16 C 350.26 118.51 349.67 117.85 349.09 117.20 C 350.43 116.66 351.76 116.09 353.08 115.47 C 348.33 116.43 343.77 118.29 338.94 118.80 C 331.54 118.59 324.77 113.95 317.21 115.59 Z" />
<path fill="#16daff" opacity="1.00" d=" M 364.78 156.93 C 365.33 156.65 366.43 156.08 366.99 155.79 C 368.82 158.52 370.00 161.62 369.54 164.96 C 368.96 170.04 372.60 173.91 374.77 178.07 C 376.58 185.12 365.84 187.69 361.97 182.97 C 358.60 179.66 362.33 175.23 363.45 171.72 C 365.82 167.07 364.56 161.88 364.78 156.93 M 366.27 174.92 C 365.70 176.70 365.03 178.44 364.45 180.21 C 365.19 180.84 365.94 181.46 366.70 182.08 C 368.64 179.77 367.86 177.16 366.27 174.92 Z" />
<path fill="#16daff" opacity="1.00" d=" M 346.27 178.10 C 348.77 176.04 348.89 180.41 348.45 181.94 C 347.01 188.24 354.08 192.73 352.32 199.00 C 350.88 202.87 345.26 203.39 342.88 200.19 C 340.44 197.13 341.72 193.03 342.43 189.60 C 343.38 185.71 343.15 181.10 346.27 178.10 M 347.61 191.86 C 347.66 194.03 346.02 197.66 348.09 198.96 C 349.46 196.80 349.23 193.82 347.61 191.86 Z" />
<path fill="#16daff" opacity="1.00" d=" M 365.64 203.23 C 366.11 203.28 367.05 203.38 367.52 203.42 C 367.66 206.61 367.71 209.84 368.51 212.95 C 369.96 216.97 374.06 219.28 375.71 223.18 C 377.00 226.62 375.15 230.56 372.17 232.45 C 369.51 233.39 366.05 233.02 364.15 230.76 C 362.86 226.66 362.26 222.19 363.25 217.95 C 363.78 215.54 363.21 213.10 362.80 210.73 C 364.08 208.37 365.08 205.87 365.64 203.23 M 370.26 221.04 C 370.15 223.76 370.59 226.46 371.88 228.89 C 374.96 226.57 371.95 223.16 370.26 221.04 Z" />
<path fill="#16daff" opacity="1.00" d=" M 334.42 208.34 C 335.60 206.33 337.12 208.57 337.00 210.00 C 337.73 216.05 343.04 220.68 342.54 226.98 C 342.37 230.13 341.29 234.10 337.89 235.14 C 333.77 236.63 328.80 233.49 328.38 229.13 C 327.56 221.74 331.01 214.66 334.42 208.34 M 337.22 219.74 C 337.12 221.70 337.14 223.67 337.20 225.64 C 337.96 226.32 338.73 227.00 339.49 227.70 C 339.42 224.88 338.78 222.11 337.22 219.74 Z" />
<path fill="#16daff" opacity="1.00" d=" M 347.23 254.91 C 345.35 247.39 348.95 239.30 354.36 234.08 C 355.75 237.96 355.69 242.19 357.18 246.06 C 358.33 249.58 359.30 254.31 356.10 257.06 C 353.41 259.74 348.17 258.80 347.23 254.91 M 351.21 247.66 C 351.44 249.94 350.66 252.97 353.09 254.33 C 352.61 252.07 351.94 249.85 351.21 247.66 Z" />
</g>
</svg>
