<?xml version="1.0" encoding="UTF-8" ?>
<!DOCTYPE svg PUBLIC "-//W3C//DTD SVG 1.1//EN" "http://www.w3.org/Graphics/SVG/1.1/DTD/svg11.dtd">
<svg width="394pt" height="255pt" viewBox="0 0 394 255" version="1.1" xmlns="http://www.w3.org/2000/svg">
<g id="#ffffffff">
<path fill="#ffffff" opacity="1.00" d=" M 161.40 5.55 C 164.91 5.22 168.45 5.95 171.95 5.38 C 174.04 5.05 176.14 4.70 178.27 4.85 C 176.84 7.41 173.60 7.83 170.99 8.14 C 166.65 7.89 162.11 6.61 158.05 8.85 C 158.44 7.22 159.72 5.84 161.40 5.55 Z" />
<path fill="#ffffff" opacity="1.00" d=" M 186.69 16.89 C 188.26 13.91 191.80 12.72 195.01 12.90 C 201.10 13.76 206.71 17.36 213.02 16.75 C 217.03 16.58 221.04 16.81 225.05 16.76 C 230.82 16.88 236.22 14.13 242.02 14.59 C 245.70 14.96 250.28 14.08 253.16 16.90 C 248.78 17.81 244.35 17.10 239.99 16.51 C 236.04 15.72 232.75 18.66 228.96 19.12 C 223.65 19.93 218.27 19.09 212.93 19.22 C 206.18 19.45 200.50 14.90 193.95 14.13 C 191.16 13.74 188.72 15.16 186.69 16.89 Z" />
<path fill="#ffffff" opacity="1.00" d=" M 119.67 19.01 C 124.71 14.18 132.59 12.69 138.86 15.91 C 144.44 18.31 150.32 15.64 155.99 15.23 C 155.98 17.62 153.51 18.02 151.71 18.69 C 147.91 19.92 143.70 20.00 139.81 19.21 C 136.76 17.58 133.65 15.69 130.01 16.18 C 126.20 15.63 123.44 19.13 119.67 19.01 Z" />
<path fill="#ffffff" opacity="1.00" d=" M 42.89 18.82 C 47.60 14.34 55.05 14.40 60.87 16.37 C 64.06 17.78 67.60 17.54 70.99 17.92 C 80.42 19.41 89.77 15.63 99.23 16.72 C 98.25 18.71 95.82 18.48 93.99 18.89 C 85.68 19.73 77.32 21.20 68.99 19.65 C 63.04 20.16 57.97 15.98 52.03 16.56 C 48.82 16.59 46.08 18.63 42.89 18.82 Z" />
<path fill="#ffffff" opacity="1.00" d=" M 298.92 19.71 C 303.80 15.76 310.40 17.73 315.90 19.00 C 322.94 19.32 329.98 18.03 337.02 17.73 C 337.81 17.93 339.40 18.32 340.19 18.52 C 336.89 20.79 332.75 20.40 328.97 20.90 C 323.38 21.61 317.52 21.76 312.16 19.75 C 307.94 18.12 303.12 17.87 298.92 19.71 Z" />
<path fill="#ffffff" opacity="1.00" d=" M 268.94 23.12 C 270.14 21.95 270.98 19.77 273.01 20.13 C 276.37 20.76 279.42 22.85 282.97 22.44 C 288.65 21.96 294.39 23.32 299.99 21.92 C 301.73 21.48 303.51 21.83 305.24 22.17 C 298.89 27.02 290.35 24.65 282.98 24.60 C 279.30 24.65 276.15 22.63 272.89 21.27 C 271.38 21.37 270.19 22.41 268.94 23.12 Z" />
<path fill="#ffffff" opacity="1.00" d=" M 361.50 21.65 C 362.94 20.99 364.68 19.64 366.22 20.88 C 369.67 23.28 373.99 23.48 377.73 25.24 C 380.44 26.72 383.78 25.61 386.43 27.19 C 383.36 27.87 379.96 28.39 377.02 26.98 C 372.92 25.20 368.19 24.58 364.98 21.17 C 363.82 21.35 362.66 21.50 361.50 21.65 Z" />
<path fill="#ffffff" opacity="1.00" d=" M 13.90 35.88 C 15.28 29.13 22.09 25.30 28.34 24.00 C 23.83 26.75 18.58 29.27 16.12 34.23 C 14.62 37.50 16.06 41.05 16.98 44.27 C 14.73 42.11 13.02 39.10 13.90 35.88 Z" />
<path fill="#ffffff" opacity="1.00" d=" M 384.75 47.98 C 384.82 46.51 384.61 44.83 385.90 43.78 C 386.59 47.99 386.73 53.04 383.24 56.12 C 383.79 53.42 384.76 50.77 384.75 47.98 Z" />
<path fill="#ffffff" opacity="1.00" d=" M 14.66 57.98 C 18.14 63.74 16.74 70.95 14.84 76.98 C 15.57 83.79 18.78 90.34 23.59 95.21 C 21.13 94.85 19.55 92.89 18.30 90.93 C 15.55 86.77 13.41 81.98 13.27 76.93 C 13.19 74.23 14.93 71.88 14.84 69.19 C 14.77 65.45 14.46 61.72 14.66 57.98 Z" />
<path fill="#ffffff" opacity="1.00" d=" M 366.80 108.79 C 370.25 104.91 372.92 100.30 377.05 97.05 C 375.97 101.88 371.87 105.17 369.16 109.12 C 366.78 112.75 361.49 113.86 358.12 110.92 C 361.03 110.54 364.68 111.41 366.80 108.79 Z" />
<path fill="#ffffff" opacity="1.00" d=" M 28.65 98.32 C 30.76 98.26 33.05 97.93 34.97 99.02 C 37.33 100.37 39.27 102.57 42.03 103.13 C 45.65 104.06 49.40 103.50 53.08 103.41 C 49.98 106.81 44.87 105.93 40.88 104.94 C 37.33 104.20 35.56 100.28 31.98 99.69 C 30.82 99.37 29.47 99.35 28.65 98.32 Z" />
<path fill="#ffffff" opacity="1.00" d=" M 62.09 103.64 C 64.43 101.23 67.91 100.91 71.07 100.75 C 75.65 100.33 79.57 103.56 84.12 103.45 C 91.51 103.21 98.91 104.18 106.29 103.42 C 112.47 102.79 118.75 103.79 124.88 102.47 C 121.70 103.55 118.44 104.68 115.04 104.60 C 109.32 104.52 103.70 105.95 97.98 105.57 C 93.32 105.31 88.66 105.30 84.01 105.15 C 80.72 105.04 77.84 103.31 74.75 102.42 C 70.49 101.58 66.22 102.61 62.09 103.64 Z" />
<path fill="#ffffff" opacity="1.00" d=" M 290.80 103.98 C 293.15 102.93 295.64 102.19 298.24 102.19 C 297.09 104.95 293.85 105.44 291.43 106.59 C 286.54 108.88 281.59 105.38 276.82 104.37 C 275.00 105.70 273.11 106.94 271.06 107.89 C 272.06 104.82 275.81 102.09 279.08 103.14 C 282.94 103.57 287.00 105.72 290.80 103.98 Z" />
<path fill="#ffffff" opacity="1.00" d=" M 150.83 108.99 C 151.35 106.06 154.77 105.31 157.06 104.12 C 163.43 101.74 168.73 107.18 174.87 107.71 C 178.70 108.49 182.41 107.09 186.06 106.13 C 185.46 109.37 181.96 110.68 179.06 111.04 C 173.20 111.42 167.86 108.58 162.80 106.00 C 158.45 104.22 154.60 107.31 150.83 108.99 Z" />
<path fill="#ffffff" opacity="1.00" d=" M 203.86 107.79 C 206.38 105.06 210.18 102.88 213.97 104.18 C 220.38 106.63 227.32 105.23 233.98 106.10 C 239.49 106.81 244.30 102.50 249.85 103.68 C 246.30 106.79 241.59 108.11 237.09 109.17 C 232.04 109.37 227.01 108.53 221.96 108.66 C 218.36 108.81 215.33 106.68 212.03 105.66 C 209.09 104.76 206.52 106.92 203.86 107.79 Z" />
<path fill="#ffffff" opacity="1.00" d=" M 115.98 109.64 C 118.55 106.80 122.78 105.34 126.47 106.71 C 132.10 108.82 138.10 106.99 143.84 106.49 C 140.32 109.70 135.65 110.83 130.98 110.26 C 127.99 110.68 125.85 108.12 123.04 107.77 C 120.66 108.27 118.46 109.54 115.98 109.64 Z" />
<path fill="#ffffff" opacity="1.00" d=" M 340.57 110.71 C 344.20 109.03 348.27 108.80 351.99 107.35 C 348.03 109.85 343.61 111.51 339.33 113.35 C 336.21 114.57 333.11 112.86 330.24 111.80 C 325.67 110.10 320.73 110.25 315.95 110.58 C 321.68 106.95 328.51 109.38 334.60 110.55 L 334.54 111.66 C 336.56 111.57 338.70 111.64 340.57 110.71 Z" />
<path fill="#ffffff" opacity="1.00" d=" M 343.68 167.81 C 345.08 169.85 346.03 173.86 343.24 175.09 C 343.08 172.65 343.23 170.21 343.68 167.81 Z" />
<path fill="#ffffff" opacity="1.00" d=" M 365.44 196.20 C 366.04 194.40 366.74 192.64 367.40 190.86 C 368.83 193.19 369.68 195.81 367.65 198.07 C 366.90 197.46 366.16 196.83 365.44 196.20 Z" />
<path fill="#ffffff" opacity="1.00" d=" M 336.27 209.04 C 337.95 211.16 340.94 214.52 337.87 216.86 C 336.56 214.45 336.15 211.75 336.27 209.04 Z" />
<path fill="#ffffff" opacity="1.00" d=" M 364.19 222.79 C 365.82 225.11 366.42 227.90 366.48 230.70 C 365.72 230.01 364.97 229.32 364.21 228.63 C 364.13 226.68 364.09 224.73 364.19 222.79 Z" />
<path fill="#ffffff" opacity="1.00" d=" M 340.19 242.63 C 340.96 244.86 341.63 247.11 342.09 249.43 C 339.71 247.96 340.41 244.97 340.19 242.63 Z" />
</g>
<g id="#16daffff">
<path fill="#16daff" opacity="1.00" d=" M 134.02 2.84 C 142.66 2.07 151.31 1.16 159.99 1.19 C 169.34 1.42 178.70 1.47 188.05 1.08 C 198.70 -0.45 209.35 1.48 219.99 1.92 C 228.18 2.26 235.73 5.93 243.86 6.71 C 253.05 8.53 262.13 5.12 271.34 5.49 C 271.77 5.22 272.65 4.67 273.08 4.40 C 276.72 4.58 280.37 4.60 284.02 4.53 C 292.06 4.39 299.99 6.39 308.04 5.80 C 321.19 4.99 334.46 6.27 347.26 9.38 C 350.14 10.11 353.11 10.38 356.07 10.50 C 360.91 10.61 365.34 12.80 369.86 14.28 C 378.73 16.96 385.24 24.18 390.70 31.32 C 393.36 34.38 393.50 38.61 394.00 42.44 L 394.00 53.54 C 393.40 59.03 394.04 64.60 392.96 70.05 C 391.27 80.27 391.74 91.26 386.51 100.55 C 384.29 104.80 380.24 107.76 378.18 112.11 C 373.57 121.58 367.96 130.87 359.95 137.87 C 354.67 142.37 347.34 146.01 340.35 143.55 C 334.64 141.66 331.55 136.11 328.82 131.18 C 325.58 125.28 320.15 119.63 313.01 119.32 C 309.15 119.08 305.80 116.78 301.94 116.58 C 292.31 115.88 282.67 116.79 273.04 117.19 C 261.66 117.27 250.36 115.75 239.00 115.27 C 229.32 114.44 219.64 115.57 209.94 115.37 C 198.27 115.45 186.69 113.17 175.01 113.74 C 169.81 113.84 164.69 112.40 159.48 112.84 C 141.19 114.05 122.82 115.83 104.51 113.86 C 91.68 112.98 78.81 112.07 65.95 112.39 C 53.74 113.88 41.13 115.97 29.02 112.72 C 24.91 111.83 21.23 109.51 17.03 108.98 C 15.06 108.58 12.41 108.66 11.35 106.60 C 8.41 100.10 4.28 94.07 2.78 86.99 C -0.21 75.85 1.95 64.28 1.31 52.96 C 3.41 44.98 4.22 36.58 7.98 29.11 C 10.40 23.49 15.50 19.63 20.80 16.91 C 25.09 14.68 28.79 11.34 33.35 9.67 C 45.43 7.53 57.80 6.79 70.03 8.05 C 77.37 8.27 84.72 7.95 92.05 7.71 C 97.28 6.91 102.57 8.20 107.78 7.25 C 112.16 6.54 116.56 5.96 120.97 5.51 C 125.42 5.09 129.57 3.19 134.02 2.84 M 161.40 5.55 C 159.72 5.84 158.44 7.22 158.05 8.85 C 162.11 6.61 166.65 7.89 170.99 8.14 C 173.60 7.83 176.84 7.41 178.27 4.85 C 176.14 4.70 174.04 5.05 171.95 5.38 C 168.45 5.95 164.91 5.22 161.40 5.55 M 186.69 16.89 C 188.72 15.16 191.16 13.74 193.95 14.13 C 200.50 14.90 206.18 19.45 212.93 19.22 C 218.27 19.09 223.65 19.93 228.96 19.12 C 232.75 18.66 236.04 15.72 239.99 16.51 C 244.35 17.10 248.78 17.81 253.16 16.90 C 250.28 14.08 245.70 14.96 242.02 14.59 C 236.22 14.13 230.82 16.88 225.05 16.76 C 221.04 16.81 217.03 16.58 213.02 16.75 C 206.71 17.36 201.10 13.76 195.01 12.90 C 191.80 12.72 188.26 13.91 186.69 16.89 M 119.67 19.01 C 123.44 19.13 126.20 15.63 130.01 16.18 C 133.65 15.69 136.76 17.58 139.81 19.21 C 143.70 20.00 147.91 19.92 151.71 18.69 C 153.51 18.02 155.98 17.62 155.99 15.23 C 150.32 15.64 144.44 18.31 138.86 15.91 C 132.59 12.69 124.71 14.18 119.67 19.01 M 42.89 18.82 C 46.08 18.63 48.82 16.59 52.03 16.56 C 57.97 15.98 63.04 20.16 68.99 19.65 C 77.32 21.20 85.68 19.73 93.99 18.89 C 95.82 18.48 98.25 18.71 99.23 16.72 C 89.77 15.63 80.42 19.41 70.99 17.92 C 67.60 17.54 64.06 17.78 60.87 16.37 C 55.05 14.40 47.60 14.34 42.89 18.82 M 298.92 19.71 C 303.12 17.87 307.94 18.12 312.16 19.75 C 317.52 21.76 323.38 21.61 328.97 20.90 C 332.75 20.40 336.89 20.79 340.19 18.52 C 339.40 18.32 337.81 17.93 337.02 17.73 C 329.98 18.03 322.94 19.32 315.90 19.00 C 310.40 17.73 303.80 15.76 298.92 19.71 M 268.94 23.12 C 270.19 22.41 271.38 21.37 272.89 21.27 C 276.15 22.63 279.30 24.65 282.98 24.60 C 290.35 24.65 298.89 27.02 305.24 22.17 C 303.51 21.83 301.73 21.48 299.99 21.92 C 294.39 23.32 288.65 21.96 282.97 22.44 C 279.42 22.85 276.37 20.76 273.01 20.13 C 270.98 19.77 270.14 21.95 268.94 23.12 M 361.50 21.65 C 362.66 21.50 363.82 21.35 364.98 21.17 C 368.19 24.58 372.92 25.20 377.02 26.98 C 379.96 28.39 383.36 27.87 386.43 27.19 C 383.78 25.61 380.44 26.72 377.73 25.24 C 373.99 23.48 369.67 23.28 366.22 20.88 C 364.68 19.64 362.94 20.99 361.50 21.65 M 13.90 35.88 C 13.02 39.10 14.73 42.11 16.98 44.27 C 16.06 41.05 14.62 37.50 16.12 34.23 C 18.58 29.27 23.83 26.75 28.34 24.00 C 22.09 25.30 15.28 29.13 13.90 35.88 M 384.75 47.98 C 384.76 50.77 383.79 53.42 383.24 56.12 C 386.73 53.04 386.59 47.99 385.90 43.78 C 384.61 44.83 384.82 46.51 384.75 47.98 M 14.66 57.98 C 14.46 61.72 14.77 65.45 14.84 69.19 C 14.93 71.88 13.19 74.23 13.27 76.93 C 13.41 81.98 15.55 86.77 18.30 90.93 C 19.55 92.89 21.13 94.85 23.59 95.21 C 18.78 90.34 15.57 83.79 14.84 76.98 C 16.74 70.95 18.14 63.74 14.66 57.98 M 366.80 108.79 C 364.68 111.41 361.03 110.54 358.12 110.92 C 361.49 113.86 366.78 112.75 369.16 109.12 C 371.87 105.17 375.97 101.88 377.05 97.05 C 372.92 100.30 370.25 104.91 366.80 108.79 M 28.65 98.32 C 29.47 99.35 30.82 99.37 31.98 99.69 C 35.56 100.28 37.33 104.20 40.88 104.94 C 44.87 105.93 49.98 106.81 53.08 103.41 C 49.40 103.50 45.65 104.06 42.03 103.13 C 39.27 102.57 37.33 100.37 34.97 99.02 C 33.05 97.93 30.76 98.26 28.65 98.32 M 62.09 103.64 C 66.22 102.61 70.49 101.58 74.75 102.42 C 77.84 103.31 80.72 105.04 84.01 105.15 C 88.66 105.30 93.32 105.31 97.98 105.57 C 103.70 105.95 109.32 104.52 115.04 104.60 C 118.44 104.68 121.70 103.55 124.88 102.47 C 118.75 103.79 112.47 102.79 106.29 103.42 C 98.91 104.18 91.51 103.21 84.12 103.45 C 79.57 103.56 75.65 100.33 71.07 100.75 C 67.91 100.91 64.43 101.23 62.09 103.64 M 290.80 103.98 C 287.00 105.72 282.94 103.57 279.08 103.14 C 275.81 102.09 272.06 104.82 271.06 107.89 C 273.11 106.94 275.00 105.70 276.82 104.37 C 281.59 105.38 286.54 108.88 291.43 106.59 C 293.85 105.44 297.09 104.95 298.24 102.19 C 295.64 102.19 293.15 102.93 290.80 103.98 M 150.83 108.99 C 154.60 107.31 158.45 104.22 162.80 106.00 C 167.86 108.58 173.20 111.42 179.06 111.04 C 181.96 110.68 185.46 109.37 186.06 106.13 C 182.41 107.09 178.70 108.49 174.87 107.71 C 168.73 107.18 163.43 101.74 157.06 104.12 C 154.77 105.31 151.35 106.06 150.83 108.99 M 203.86 107.79 C 206.52 106.92 209.09 104.76 212.03 105.66 C 215.33 106.68 218.36 108.81 221.96 108.66 C 227.01 108.53 232.04 109.37 237.09 109.17 C 241.59 108.11 246.30 106.79 249.85 103.68 C 244.30 102.50 239.49 106.81 233.98 106.10 C 227.32 105.23 220.38 106.63 213.97 104.18 C 210.18 102.88 206.38 105.06 203.86 107.79 M 115.98 109.64 C 118.46 109.54 120.66 108.27 123.04 107.77 C 125.85 108.12 127.99 110.68 130.98 110.26 C 135.65 110.83 140.32 109.70 143.84 106.49 C 138.10 106.99 132.10 108.82 126.47 106.71 C 122.78 105.34 118.55 106.80 115.98 109.64 M 340.57 110.71 C 338.70 111.64 336.56 111.57 334.54 111.66 L 334.60 110.55 C 328.51 109.38 321.68 106.95 315.95 110.58 C 320.73 110.25 325.67 110.10 330.24 111.80 C 333.11 112.86 336.21 114.57 339.33 113.35 C 343.61 111.51 348.03 109.85 351.99 107.35 C 348.27 108.80 344.20 109.03 340.57 110.71 Z" />
<path fill="#16daff" opacity="1.00" d=" M 342.20 154.16 C 343.97 152.08 345.22 155.50 344.53 156.98 C 343.73 160.80 345.17 164.52 347.12 167.74 C 348.93 170.56 349.51 175.22 346.39 177.36 C 343.72 179.45 339.27 177.96 338.06 174.87 C 336.70 171.66 337.95 168.20 338.56 164.98 C 339.38 161.28 339.30 157.00 342.20 154.16 M 343.68 167.81 C 343.23 170.21 343.08 172.65 343.24 175.09 C 346.03 173.86 345.08 169.85 343.68 167.81 Z" />
<path fill="#16daff" opacity="1.00" d=" M 366.21 172.32 C 367.38 171.77 368.23 172.06 368.77 173.19 C 372.04 177.25 369.25 182.81 371.75 187.16 C 373.07 190.66 377.22 193.52 375.59 197.67 C 372.92 202.87 364.03 202.45 361.64 197.10 C 361.24 192.51 364.73 188.78 365.54 184.39 C 366.76 180.46 364.84 176.07 366.21 172.32 M 365.44 196.20 C 366.16 196.83 366.90 197.46 367.65 198.07 C 369.68 195.81 368.83 193.19 367.40 190.86 C 366.74 192.64 366.04 194.40 365.44 196.20 Z" />
<path fill="#16daff" opacity="1.00" d=" M 331.62 191.25 C 332.09 191.29 333.04 191.36 333.51 191.40 C 333.68 194.64 333.69 197.94 334.57 201.08 C 336.02 204.79 339.58 207.10 341.47 210.55 C 342.82 214.07 341.53 218.42 338.25 220.41 C 335.59 221.40 332.10 221.05 330.18 218.79 C 329.16 216.01 328.89 212.97 328.69 210.03 C 329.23 206.27 329.94 202.47 328.80 198.73 C 330.07 196.37 331.08 193.88 331.62 191.25 M 336.27 209.04 C 336.15 211.75 336.56 214.45 337.87 216.86 C 340.94 214.52 337.95 211.16 336.27 209.04 Z" />
<path fill="#16daff" opacity="1.00" d=" M 361.46 211.31 C 362.68 209.31 364.14 211.66 364.01 213.06 C 364.75 219.11 370.08 223.73 369.54 230.03 C 369.33 232.88 368.54 236.38 365.74 237.77 C 361.54 240.05 355.79 236.80 355.38 232.10 C 354.57 224.70 358.02 217.62 361.46 211.31 M 364.19 222.79 C 364.09 224.73 364.13 226.68 364.21 228.63 C 364.97 229.32 365.72 230.01 366.48 230.70 C 366.42 227.90 365.82 225.11 364.19 222.79 Z" />
<path fill="#16daff" opacity="1.00" d=" M 341.85 229.25 C 342.26 229.26 343.08 229.28 343.49 229.29 C 344.71 233.15 344.72 237.28 346.19 241.08 C 347.24 244.43 348.22 248.68 345.61 251.58 C 343.23 254.45 337.82 254.32 336.49 250.50 C 333.68 242.97 338.49 235.70 341.85 229.25 M 340.19 242.63 C 340.41 244.97 339.71 247.96 342.09 249.43 C 341.63 247.11 340.96 244.86 340.19 242.63 Z" />
</g>
</svg>
